<?xml version="1.0" standalone="no"?>
<!DOCTYPE svg PUBLIC "-//W3C//DTD SVG 20010904//EN"
 "http://www.w3.org/TR/2001/REC-SVG-20010904/DTD/svg10.dtd">
<svg version="1.0" xmlns="http://www.w3.org/2000/svg"
 width="700.000000pt" height="700.000000pt" viewBox="0 0 700.000000 700.000000"
 preserveAspectRatio="xMidYMid meet">
<metadata>
Created by potrace 1.11, written by Peter Selinger 2001-2013
</metadata>
<g transform="translate(0.000000,700.000000) scale(0.100000,-0.100000)"
fill="#000000" stroke="none">
<path d="M4860 6873 c-221 -31 -373 -200 -372 -414 1 -228 183 -410 410 -411
197 -1 361 131 408 327 10 42 5 154 -9 203 -30 100 -116 204 -206 250 -62 32
-172 53 -231 45z"/>
<path d="M3015 6664 c-144 -22 -240 -53 -359 -113 -214 -109 -383 -276 -490
-483 -43 -83 -96 -222 -96 -252 0 -9 -3 -16 -7 -17 -270 -20 -536 -168 -706
-391 -137 -181 -197 -371 -192 -613 4 -193 33 -310 120 -472 78 -148 183 -264
325 -361 l75 -51 1 -1738 1 -1738 22 -58 c42 -108 120 -186 228 -228 l58 -22
1190 -1 c655 0 1210 3 1235 6 66 9 104 23 152 56 75 53 134 128 153 197 4 17
10 37 12 45 3 8 6 113 7 232 1 120 4 220 7 222 3 3 114 6 248 6 204 1 255 4
318 20 113 29 187 73 278 165 122 123 193 262 234 456 18 89 19 142 20 959 1
941 -1 982 -56 1134 -73 204 -195 351 -361 435 -52 27 -150 52 -206 54 l-42 1
53 70 c308 410 223 1005 -188 1318 -112 85 -267 163 -366 183 -139 29 -259 36
-352 22 -28 -5 -30 -3 -36 36 -12 72 -52 202 -85 273 -80 174 -242 364 -398
467 -134 90 -322 164 -462 182 -92 13 -251 12 -335 -1z m2282 -2855 c145 -54
244 -176 294 -364 17 -66 18 -122 18 -920 0 -941 2 -913 -65 -1053 -54 -112
-149 -197 -257 -232 -34 -11 -278 -16 -497 -11 l-45 1 1 1297 c1 714 2 1299 3
1301 1 1 111 2 246 2 225 0 249 -2 302 -21z"/>
</g>
</svg>
