<svg xmlns="http://www.w3.org/2000/svg" viewBox="0 0 96 96"><defs><style>.cls-1{fill:#ffe27d;}.cls-2{fill:#ffc30d;stroke:#ffe27d;stroke-width:1.17px;}.cls-2,.cls-5{stroke-miterlimit:10;}.cls-3{opacity:0.75;}.cls-4{fill:#fff;}.cls-5{fill:#fbf4db;stroke:#ffe27e;stroke-width:1.19px;}</style></defs><title>brewski-logo</title><g id="Brewski_Logo" data-name="Brewski Logo"><g id="Group_18" data-name="Group 18"><path id="Path_9" data-name="Path 9" class="cls-1" d="M71.14,83.78H44.39c-5.11,0-9-5.11-9-11.43V51c0-6.31,3.91-11.42,9-11.42H71.14c5.11,0,9,5.11,9,11.42V72.35C80.16,78.67,76.25,83.78,71.14,83.78ZM44.39,43.5c-3.3,0-5.71,3.3-5.71,7.21V72.05c0,3.91,2.71,7.22,5.71,7.22H71.14c3.31,0,5.71-3.31,5.71-7.22V50.71c0-3.91-2.7-7.21-5.71-7.21Z"/></g><path id="Path_10" data-name="Path 10" class="cls-2" d="M60,32.67H28.16a4.63,4.63,0,0,0-4.51,4.51v52a4.62,4.62,0,0,0,4.51,4.51H60a4.62,4.62,0,0,0,4.51-4.51v-52C64.83,34.47,62.73,32.67,60,32.67Z"/><g id="Group_19" data-name="Group 19" class="cls-3"><path id="Path_11" data-name="Path 11" class="cls-4" d="M52.21,79.27H49.8a2.06,2.06,0,0,1-2.1-2V49.2a2.06,2.06,0,0,1,2-2.1H52.2a2.07,2.07,0,0,1,2.1,2V77.16A2.27,2.27,0,0,1,52.21,79.27Z"/></g><g id="Group_20" data-name="Group 20" class="cls-3"><path id="Path_12" data-name="Path 12" class="cls-4" d="M39.28,79.27H36.87a2.07,2.07,0,0,1-2.1-2V49.2a2.07,2.07,0,0,1,2-2.1h2.49a2.06,2.06,0,0,1,2.1,2V77.16A2.25,2.25,0,0,1,39.28,79.27Z"/></g><path id="Path_13" data-name="Path 13" class="cls-5" d="M61.22,18.25a8.22,8.22,0,0,0-2.7.3,15.08,15.08,0,0,0-29.76-1.5A13,13,0,0,0,16.44,30.27,13.34,13.34,0,0,0,29.66,43.5a12.84,12.84,0,0,0,12-8.12h1.8a13.39,13.39,0,0,0,6-1.2,12.63,12.63,0,0,0,12,9A12.2,12.2,0,0,0,73.85,31.15v-.28A12.89,12.89,0,0,0,61.22,18.25Z"/><circle id="Ellipse_1" data-name="Ellipse 1" cx="48.9" cy="62.73" r="2.7"/><circle id="Ellipse_2" data-name="Ellipse 2" cx="40.18" cy="62.73" r="2.7"/><circle id="Ellipse_3" data-name="Ellipse 3" class="cls-5" cx="67.24" cy="7.43" r="5.11"/></g><g id="Moustache"><path id="Path_14" data-name="Path 14" d="M60.32,82.87a6.37,6.37,0,0,1-1.8-1.2c-.6-.6-.9-1.2-1.5-1.5a75.48,75.48,0,0,1-3.91-6.61,7.61,7.61,0,0,0-1.5-1.8,4.17,4.17,0,0,0-3.9-1.2,5.1,5.1,0,0,0-3,.9,5.1,5.1,0,0,0-3-.9,6,6,0,0,0-3.9,1.2,7.85,7.85,0,0,0-1.5,1.8,74.48,74.48,0,0,0-3.91,6.61,3.62,3.62,0,0,1-1.5,1.5,6.37,6.37,0,0,1-1.8,1.2c-.9.3-.9,1.5.3,1.5h0A16.24,16.24,0,0,0,36,82.87a22.52,22.52,0,0,0,8.72-6h0a26.29,26.29,0,0,0,8.72,6A16.2,16.2,0,0,0,60,84.37h0a.77.77,0,0,0,.28-1.5Z"/></g></svg>