<svg xmlns="http://www.w3.org/2000/svg"><symbol id="bear-near" viewBox="0 0 96 96"><defs><style>.cls-1{fill:#fff}</style></defs><g id="Group_132"><path id="Path_50" d="M79.44.83H16.55a9 9 0 0 0-9 9v62.88a9 9 0 0 0 9 9h18L48 95.17l13.48-13.48h18a9 9 0 0 0 9-9V9.82A9 9 0 0 0 79.44.83z" class="cls-1"/><g id="Group_49"><path id="Path_49" d="M61.6 31.67h-.8A7.11 7.11 0 0 0 63 26.5a7.34 7.34 0 0 0-7.32-7.32 7.68 7.68 0 0 0-1.66.19 8.88 8.88 0 0 0-8.86-8 8.78 8.78 0 0 0-8.67 7.07 7.8 7.8 0 0 0-7.32 7.75 7.68 7.68 0 0 0 4.37 6.94V60a3.62 3.62 0 0 0 3.63 3.62h17A3.63 3.63 0 0 0 57.73 60v-2.2h3.81a6.14 6.14 0 0 0 5.29-6.8V38.43a6.09 6.09 0 0 0-5.23-6.76zM65 51a3.91 3.91 0 0 1-3.38 4.3h-3.83V34.07h3.81a4 4 0 0 1 3.4 4.31z"/><circle id="Ellipse_5" cx="59.33" cy="12.85" r="3.01"/></g></g></symbol><symbol id="beer" viewBox="0 0 96 96"><path id="Path_74" d="M72.71 37.38h-1.45A12.89 12.89 0 0 0 75.17 28a13.35 13.35 0 0 0-13.29-13.3 13.9 13.9 0 0 0-3 .33A16.14 16.14 0 0 0 42.77.5 16 16 0 0 0 27 13.36a14.17 14.17 0 0 0-13.3 14.07 14 14 0 0 0 7.91 12.64v48.84a6.62 6.62 0 0 0 6.59 6.59h30.88a6.62 6.62 0 0 0 6.6-6.59v-4h6.92a11.15 11.15 0 0 0 9.61-12.3V49.67a11.06 11.06 0 0 0-9.5-12.29zm6.15 35.2a7.14 7.14 0 0 1-6.15 7.83h-6.92V41.74h6.92a7.22 7.22 0 0 1 6.15 7.83z"/></symbol><symbol id="barley" viewBox="0 0 96 96"><defs><style>.cls-1{fill:#231f20}</style></defs><path d="M61.78 52.94l-.38-1.38-1.4.69a23.15 23.15 0 0 0-10 8.6v-6.54q8.25-2.58 10.32-8.26a14.3 14.3 0 0 0-1-11.7L58.66 33l-1.37.69a23 23 0 0 0-7.22 5.85v-5.19a11.65 11.65 0 0 0 7.93-6.2 20.47 20.47 0 0 0 .69-2.4V12.66a1.72 1.72 0 0 0-3.44 0v5.17h-.35a16.84 16.84 0 0 0-5.2 3.77V14a1.72 1.72 0 0 0-3.44 0v8a11.41 11.41 0 0 0-4.82-3.46h-.35v-5.88A1.72 1.72 0 0 0 39.3 11a1.74 1.74 0 0 0-1.65 1.65v13.09a4.93 4.93 0 0 0 .69 2.07A11.8 11.8 0 0 0 45.91 34v5.51a20.74 20.74 0 0 0-7.22-6.2l-1.37-.68-.69 1.37a14.33 14.33 0 0 0-1 11.71C37 49.14 40.76 51.89 46.26 54v6.19a23.2 23.2 0 0 0-10-8.6l-1.37-.69-.69 1.36a17 17 0 0 0-1.37 14.46Q36 73.39 46.28 77v6.2a1.72 1.72 0 1 0 3.44.14v-5.62c6.88-2.41 11.7-5.86 13.43-10.33a17 17 0 0 0-1.37-14.45zm-20-26.16a5.08 5.08 0 0 1 0-4.48 8.55 8.55 0 0 1 4.49 7 8.83 8.83 0 0 1 0 1.26 10 10 0 0 1-4.48-3.78zm-1.42 19.91a11.87 11.87 0 0 1-1.33-2 10.64 10.64 0 0 1 .34-7.23c.31.21.66.47 1 .78 2.65 2.09 6.75 6.27 5.85 12.3a11.75 11.75 0 0 1-5.86-3.85zm5.9 26.91l-.26-.11c0 .15 0 .29-.08.44a17.42 17.42 0 0 1-10-7.93 14.35 14.35 0 0 1 .35-10l.19.1c.06-.14.09-.29.15-.43 3.45 2.08 11.71 8.33 9.65 17.93zm8.25-51.29a5.09 5.09 0 0 1 0 4.47 8.45 8.45 0 0 1-4.47 3.79 9.12 9.12 0 0 1 4.47-8.26zM50 50.53a2.92 2.92 0 0 1 0-2.42v-.34c0-.21.07-.41.1-.62a10.13 10.13 0 0 1 1.1-3.69c.11-.23.22-.44.34-.66a13 13 0 0 1 5.33-5.31 10.72 10.72 0 0 1 .56 1.77 10.59 10.59 0 0 1-.22 5.47 11.7 11.7 0 0 1-7.22 5.85zM60.38 66c-1 2.52-3.14 4.49-6.24 6.18a16.88 16.88 0 0 1-2 1c-.55.24-1.11.49-1.7.73a14 14 0 0 1 1.55-10.09 22.26 22.26 0 0 1 7.75-7.78s0 .09.05.13L60 56a14.34 14.34 0 0 1 .94 7.4 13 13 0 0 1-.57 2.6z"/><path id="Path_24" d="M48 .5A47.5 47.5 0 1 0 95.5 48 47.5 47.5 0 0 0 48 .5zm0 91.9a44 44 0 1 1 .18 0z" class="cls-1"/></symbol><symbol id="brewski-logo" viewBox="0 0 89.2 128.2"><style>.st0{fill:#ffe27d}.st1{fill:#ffc30d;stroke:#ffe27d;stroke-width:1.173;stroke-miterlimit:10}.st2{opacity:.75}.st3{fill:#fff}.st4{fill:#fbf4db;stroke:#ffe27e;stroke-width:1.193;stroke-miterlimit:10}</style><g id="handle" transform="translate(26.317 51.799)"><path id="Path_9" d="M50.3 62H13.1C6 62 .6 54.9.6 46.1V16.5C.6 7.7 6 .6 13.1.6h37.2c7.1 0 12.5 7.1 12.5 15.9v29.7c0 8.7-5.4 15.8-12.5 15.8zM13.1 6c-4.6 0-7.9 4.6-7.9 10v29.7c0 5.4 3.8 10 7.9 10h37.2c4.6 0 7.9-4.6 7.9-10V16.1c0-5.4-3.8-10-7.9-10L13.1 6z" class="st0"/></g><path id="beer" d="M61.2 42.8H16.9c-3.4.1-6.2 2.8-6.3 6.3v72.3c.1 3.4 2.8 6.2 6.3 6.3h44.3c3.4-.1 6.2-2.8 6.3-6.3V49.1c.4-3.8-2.6-6.3-6.3-6.3z" class="st1"/><g id="stripe-right" class="st2" transform="translate(43.444 62.242)"><path id="Path_11" d="M6.9 45.3H3.5c-1.6 0-2.9-1.2-2.9-2.8v-39C.6 1.9 1.8.6 3.4.6h3.4c1.6 0 2.9 1.2 2.9 2.8v38.9c0 1.6-1.3 2.9-2.8 3z" class="st3"/></g><g id="stripe-left" class="st2" transform="translate(25.482 62.242)"><path id="Path_12" d="M6.9 45.3H3.5c-1.6 0-2.9-1.2-2.9-2.8v-39C.6 1.9 1.8.6 3.4.6h3.4c1.6 0 2.9 1.2 2.9 2.8v38.9c0 1.6-1.3 2.9-2.8 3z" class="st3"/></g><path id="bubbles" d="M62.8 22.7c-1.3-.1-2.5.1-3.8.4C57.8 11.6 47.5 3.2 36 4.4c-9 1-16.4 7.7-18.3 16.7C8 21.6.4 29.7.6 39.4.7 49.6 8.9 57.7 19 57.8c7.4.1 14-4.4 16.7-11.3h2.5c2.9.1 5.7-.5 8.4-1.7 2.2 7.4 9 12.5 16.7 12.5 9.4.1 17-7.4 17.1-16.8v-.4C80 30.3 72 22.7 62.8 22.7z" class="st4"/><path id="moustache" d="M61.6 112.5c-.9-.4-1.8-1-2.5-1.7-.8-.8-1.3-1.7-2.1-2.1-2-3-3.8-6-5.4-9.2-.6-.9-1.3-1.8-2.1-2.5-1.4-1.4-3.5-2-5.5-1.6-1.5 0-3 .4-4.2 1.3-1.2-.8-2.7-1.3-4.2-1.3-1.9-.1-3.9.5-5.4 1.7-.8.7-1.5 1.6-2.1 2.5-2 3-3.8 6-5.4 9.2-.5.9-1.2 1.6-2.1 2.1-.7.7-1.6 1.3-2.5 1.7-1.3.4-1.3 2.1.4 2.1 3.2 0 6.3-.8 9.2-2.1 4.6-1.8 8.8-4.7 12.1-8.4 3.4 3.6 7.6 6.4 12.1 8.4 2.9 1.3 6 2 9.2 2.1.6.1 1.1-.4 1.2-1 .1-.5-.2-1-.7-1.2z"/><circle id="eye-right" cx="45.7" cy="84.6" r="3.8"/><circle id="eye-left" cx="33.6" cy="84.6" r="3.8"/><circle id="bubble" cx="71.2" cy="7.7" r="7.1" class="st4"/></symbol><symbol id="close" viewBox="0 0 96 96"><path id="path" d="M95.5 10L86 .5l-38 38-38-38L.5 10l38 38-38 38 9.5 9.5 38-38 38 38 9.5-9.5-38-38z"/></symbol><symbol id="hops" viewBox="0 0 96 96"><defs><style>.cls-1{fill:#231f20}</style></defs><path id="Path_44" d="M73 39.07l-.34-1.73C70.55 20.82 53 18.41 48.52 18.41h-1c-4.13-.35-22 2.41-24.09 18.93l-.34 1.72 2.06.34h1.37a21.48 21.48 0 0 0 .34 11.36l.69 1.73 1.72-.69c1.17-.4 2.32-.86 3.44-1.37a18.65 18.65 0 0 0 4.09 16.18l1 1.36 1.36-1c.35 0 .35-.34.69-.69a20.17 20.17 0 0 0 7.58 11 1.25 1.25 0 0 0 1 .34 1.25 1.25 0 0 0 1-.34 17.37 17.37 0 0 0 7.93-12l.34.34 1.37 1 1-1.37a19.33 19.33 0 0 0 4.48-14.8c1.12.51 2.27 1 3.44 1.37l1.72.69.69-1.73a18.45 18.45 0 0 0 .35-11.36h1zm-22 10a5.81 5.81 0 0 1-2.06 2.06l-.69.69-.35.34c-.69-.34-1.36-1.36-2.41-2.06a12.74 12.74 0 0 1-3.09-6.88v-1.39a9.15 9.15 0 0 1 1-4.13 10.46 10.46 0 0 1 2.06-3.79c.35-.69.69-1 1-1.72.69-.69 1-1.37 1.72-2.06A20.54 20.54 0 0 1 51.62 35a16.36 16.36 0 0 1 1 2.4 9.19 9.19 0 0 1 1 4.13v2.07a10.49 10.49 0 0 1-2.69 5.45zm-8.33-17.24c-.34.34-.34.69-.69.69a.33.33 0 0 0-.34.32 17.33 17.33 0 0 1-10 3.45h-4.46c2.06-9 9.64-12 14.8-13.42a30.26 30.26 0 0 1 3.78-.69 20.36 20.36 0 0 1-1.36 6.54M29.93 48a13.44 13.44 0 0 1 .34-8.27h.35a24.89 24.89 0 0 0 7.57-1c.69-.34 1.37-.34 1.72-.69a8.52 8.52 0 0 0-.34 4.13 13.62 13.62 0 0 1-5.51 4.13 21.35 21.35 0 0 0-4.13 1.7zm9.64 13.77l-1 1a15.94 15.94 0 0 1-1.72-14.46A7.41 7.41 0 0 0 39.91 46a13.68 13.68 0 0 0 3.79 6.2l1.72 1.72a23.41 23.41 0 0 1-5.85 7.91zM54 64.88a13.84 13.84 0 0 1-5.5 9 13.44 13.44 0 0 1-5.52-9v-1.37a24.85 24.85 0 0 0 5.17-7.57c.34-.69.34-1.37.68-1.72.35.34.35 1 .69 1.37a26.61 26.61 0 0 0 4.82 6.53 6.82 6.82 0 0 0-.34 2.76zm4.48-3.1l-1.37-1.36A23.73 23.73 0 0 1 52 53.19l1-1a16.77 16.77 0 0 0 3.44-6.53 21.81 21.81 0 0 0 4.13 3.09 15.52 15.52 0 0 1-2.07 13.03zm9-13.77a18.47 18.47 0 0 1-3.79-1.72 20 20 0 0 1-5.19-3.79c-.35-.34-.69-1-1.37-1.36v-.7c0-1-.34-1.72-.34-2.75a12.88 12.88 0 0 0 3.44 1 30.73 30.73 0 0 0 6.19.69h.69a18 18 0 0 1 .34 8.62zm1.72-12h-3.47a13.9 13.9 0 0 1-10.33-3.49 13.28 13.28 0 0 1-2.75-3.44 16 16 0 0 1-1.72-7.23 20.72 20.72 0 0 1 4.13.69l.34.35a17.88 17.88 0 0 1 13.43 12.39 1.11 1.11 0 0 1 .34.69z" class="cls-1"/><path id="Path_24" d="M48 .5A47.5 47.5 0 1 0 95.5 48 47.5 47.5 0 0 0 48 .5zm0 91.9a44 44 0 1 1 .18 0z" class="cls-1"/></symbol><symbol id="percent" viewBox="0 0 96 96"><defs><style>.cls-1{fill:none}.cls-2{fill:#231f20}</style></defs><path d="M63.48 26a2.11 2.11 0 0 1 2.41-.34 2.11 2.11 0 0 1 .34 2.4L32.51 69.34a1.82 1.82 0 0 1-1.37.69 1.28 1.28 0 0 1-1-.35 2.1 2.1 0 0 1-.34-2.4z" class="cls-1"/><path id="Path_20" d="M30.1 69.68a1.29 1.29 0 0 0 1 .35 2.61 2.61 0 0 0 1.36-.69L66.24 28a1.72 1.72 0 0 0-2.75-2L29.76 67.28a2.11 2.11 0 0 0 .34 2.4z" class="cls-2"/><path id="Path_24" d="M48 .5A47.5 47.5 0 1 0 95.5 48 47.5 47.5 0 0 0 48 .5zm0 91.9a44 44 0 1 1 .18 0z" class="cls-2"/><path d="M34.23 49.52a12.88 12.88 0 1 1 12.88-12.88 12.9 12.9 0 0 1-12.88 12.88zm0-22.76a9.88 9.88 0 1 0 9.88 9.88 9.89 9.89 0 0 0-9.88-9.88zm26.85 45.48A12.89 12.89 0 1 1 74 59.36a12.9 12.9 0 0 1-12.92 12.88zm0-22.77A9.89 9.89 0 1 0 71 59.36a9.91 9.91 0 0 0-9.92-9.89z" class="cls-2"/></symbol><symbol id="profile" viewBox="0 0 96 96"><circle cx="48" cy="24.47" r="23.53"/><path d="M48 59.77C32.29 59.77.93 67.65.93 83.3v11.77h94.14V83.3c0-15.65-31.36-23.53-47.07-23.53z"/></symbol><symbol id="taste" viewBox="0 0 96 96"><defs><style>.cls-1{fill:#231f20}</style></defs><path id="Path_24" d="M48 .5A47.5 47.5 0 1 0 95.5 48 47.5 47.5 0 0 0 48 .5zm0 91.9a44 44 0 1 1 .18 0z" class="cls-1"/><path id="Path_25" d="M52.13 21.18a30.35 30.35 0 0 0-4.47 1.37 36.16 36.16 0 0 1-4.13-1c-8.26-2.41-9.3-2.06-27.54 9-.69.35-.69 1-.69 1.72s.35 1 1 1.37a21 21 0 0 1 6.9 4.83 43.79 43.79 0 0 0 5.85 4.48 39.43 39.43 0 0 0 2.07 17.89c3.47 9.55 9.66 15.4 16.88 15.4s13.08-5.85 16.87-15.49a40 40 0 0 0 2.06-17.89 43.07 43.07 0 0 0 5.84-4.48 25.24 25.24 0 0 1 6.89-4.82c.68-.34 1-.69 1-1.36a2.64 2.64 0 0 0-.66-1.73c-18.58-11.7-19.61-12.04-27.87-9.29zm8.95 38.2C58 67.65 53.15 72.81 47.66 72.81S37 67.65 34.23 59.38a33.88 33.88 0 0 1-1.72-17.22A8.72 8.72 0 0 1 37 34.93a10.12 10.12 0 0 1 9 1.73V57a1.73 1.73 0 0 0 3.45.14V36.67c3.78-2.07 6.88-2.76 8.95-1.72a9.79 9.79 0 0 1 4.47 7.57 29.31 29.31 0 0 1-1.72 16.86zm9.3-24.09a52.17 52.17 0 0 1-4.48 3.79 13.74 13.74 0 0 0-3.78-6.54c-2.41-2.07-6.89-3.44-14.12.34-7.22-4.13-11.7-2.41-14.11-.34a12.63 12.63 0 0 0-3.78 6.19c-1.37-1-3.1-2.41-4.48-3.44l-5.16-4.13c15.14-9.3 15.83-9.3 22.37-7.23a44.84 44.84 0 0 0 4.82 1.37h1a44.84 44.84 0 0 0 4.82-1.37c6.89-2.06 7.23-2.06 22.37 7.23-2.06 1.38-3.78 2.75-5.51 4.13z" class="cls-1"/></symbol><symbol id="thumbs-down" viewBox="0 0 96 96"><path id="Path_80" d="M61 4.82H22.09a8.57 8.57 0 0 0-7.94 5.27L1.1 40.53a8.68 8.68 0 0 0-.6 3.15v8.6A8.65 8.65 0 0 0 9.14 61h27.24l-4.1 19.74-.13 1.38a6.55 6.55 0 0 0 1.9 4.58l4.58 4.53 28.46-28.5a8.59 8.59 0 0 0 2.5-6.09V13.45A8.65 8.65 0 0 0 61 4.82zm17.28 0v51.82H95.5V4.82z"/></symbol><symbol id="thumbs" viewBox="0 0 96 96"><path d="M48 23.75a4 4 0 0 0-4-4H23.54L26.15 7.2l.08-.91a4.56 4.56 0 0 0-1.31-3.16L21.8 0 2.24 19.55a6 6 0 0 0-1.74 4.2v25.73a5.94 5.94 0 0 0 5.94 5.94h26.72a6 6 0 0 0 5.46-3.61l8.94-20.93A5.7 5.7 0 0 0 48 28.7zm41.56 15.83H62.84a6 6 0 0 0-5.46 3.61l-8.94 20.94A5.61 5.61 0 0 0 48 66.3v5a4 4 0 0 0 4 4h20.5l-2.65 12.5-.08 1a4.58 4.58 0 0 0 1.31 3.16L74.2 95l19.56-19.55a6 6 0 0 0 1.74-4.2V45.52a5.94 5.94 0 0 0-5.94-5.94z"/></symbol><symbol id="thumbs-up" viewBox="0 0 96 96"><path d="M.5 39.36h17.27v51.82H.5zm95 4.32a8.65 8.65 0 0 0-8.64-8.63H59.62l4.1-19.74.13-1.38A6.55 6.55 0 0 0 62 9.35l-4.63-4.53L29 33.27a8.46 8.46 0 0 0-2.55 6.09v43.19a8.65 8.65 0 0 0 8.64 8.63h38.82a8.57 8.57 0 0 0 7.94-5.27L94.9 55.47a8.68 8.68 0 0 0 .6-3.15v-8.25z"/></symbol><symbol id="beer-near" viewBox="0 0 96 96"><defs><style>.cls-1{fill:#fff}.cls-2{fill:#231f20}</style></defs><g id="Group_132"><path id="Path_50" d="M79.44.83H16.55a9 9 0 0 0-9 9v62.88a9 9 0 0 0 9 9h18L48 95.17l13.48-13.48h18a9 9 0 0 0 9-9V9.82A9 9 0 0 0 79.44.83z" class="cls-1"/><g id="Group_49"><path id="Path_49" d="M61.6 31.67h-.8A7.11 7.11 0 0 0 63 26.5a7.34 7.34 0 0 0-7.32-7.32 7.68 7.68 0 0 0-1.66.19 8.88 8.88 0 0 0-8.86-8 8.78 8.78 0 0 0-8.67 7.07 7.8 7.8 0 0 0-7.32 7.75 7.68 7.68 0 0 0 4.37 6.94V60a3.62 3.62 0 0 0 3.63 3.62h17A3.63 3.63 0 0 0 57.73 60v-2.2h3.81a6.14 6.14 0 0 0 5.29-6.8V38.43a6.09 6.09 0 0 0-5.23-6.76zM65 51a3.91 3.91 0 0 1-3.38 4.3h-3.83V34.07h3.81a4 4 0 0 1 3.4 4.31z" class="cls-2"/><circle id="Ellipse_5" cx="59.33" cy="12.85" r="3.01" class="cls-2"/></g></g></symbol><symbol id="brewski-logo" viewBox="4332.78 252.02 89.16 128.17"><defs><style>.cls-1{fill:#ffe27d}.cls-2{fill:#ffc30d;stroke:#ffe27d;stroke-width:1.173px}.cls-2,.cls-5{stroke-miterlimit:10}.cls-3{opacity:.75}.cls-4{fill:#fff}.cls-5{fill:#fbf4db;stroke:#ffe27e;stroke-width:1.193px}</style></defs><g id="Group_148" transform="translate(4315 244.101)"><g id="Group_21" transform="translate(18.374 8.517)"><g id="Group_18" transform="translate(26.317 51.799)"><path id="Path_9" d="M56.71 74.407H19.532C12.431 74.407 7 67.306 7 58.533V28.874C7 20.1 12.431 13 19.532 13H56.71c7.1 0 12.532 7.1 12.532 15.874v29.659c0 8.773-5.43 15.874-12.532 15.874zM19.532 18.431c-4.6 0-7.937 4.6-7.937 10.026v29.658c0 5.431 3.76 10.026 7.937 10.026H56.71c4.6 0 7.937-4.6 7.937-10.026V28.456c0-5.431-3.76-10.026-7.937-10.026H19.532z" class="cls-1" transform="translate(-7 -13)"/></g><path id="Path_10" d="M53.646 10.7H9.366A6.425 6.425 0 0 0 3.1 16.966v72.268A6.425 6.425 0 0 0 9.366 95.5h44.28a6.425 6.425 0 0 0 6.266-6.266V16.966c.418-3.76-2.506-6.266-6.266-6.266z" class="cls-2" transform="translate(6.926 31.491)"/><g id="Group_19" class="cls-3" transform="translate(43.444 62.242)"><path id="Path_11" d="M17.366 60.2h-3.342a2.855 2.855 0 0 1-2.924-2.927V18.424a2.855 2.855 0 0 1 2.924-2.924h3.342a2.855 2.855 0 0 1 2.924 2.924v38.849a3.139 3.139 0 0 1-2.924 2.927z" class="cls-4" transform="translate(-11.1 -15.5)"/></g><g id="Group_20" class="cls-3" transform="translate(25.482 62.242)"><path id="Path_12" d="M13.066 60.2H9.724A2.855 2.855 0 0 1 6.8 57.273V18.424A2.855 2.855 0 0 1 9.724 15.5h3.342a2.855 2.855 0 0 1 2.924 2.924v38.849a3.139 3.139 0 0 1-2.924 2.927z" class="cls-4" transform="translate(-6.8 -15.5)"/></g><path id="Path_13" d="M62.942 19.88a11.565 11.565 0 0 0-3.76.418 20.95 20.95 0 0 0-41.356-2.089A18.038 18.038 0 0 0 .7 36.59a18.543 18.543 0 0 0 18.38 18.38 17.8 17.8 0 0 0 16.71-11.279h2.51a18.7 18.7 0 0 0 8.355-1.671A17.544 17.544 0 0 0 63.36 54.552a16.94 16.94 0 0 0 17.127-17.127C80.07 27.4 72.133 19.88 62.942 19.88z" class="cls-5" transform="translate(-.7 2.26)"/><path id="Path_14" d="M49.024 40.51a8.739 8.739 0 0 1-2.506-1.671c-.835-.835-1.253-1.671-2.089-2.089A105.654 105.654 0 0 1 39 27.56a11.075 11.075 0 0 0-2.089-2.506 5.8 5.8 0 0 0-5.431-1.671 7.057 7.057 0 0 0-4.18 1.253 7.057 7.057 0 0 0-4.177-1.253 8.4 8.4 0 0 0-5.431 1.671 11.075 11.075 0 0 0-2.089 2.506 105.662 105.662 0 0 0-5.431 9.19 5.034 5.034 0 0 1-2.089 2.089 8.739 8.739 0 0 1-2.504 1.671c-1.253.418-1.253 2.09.421 2.09a22.766 22.766 0 0 0 9.19-2.089 31.48 31.48 0 0 0 12.11-8.356 36.783 36.783 0 0 0 12.116 8.355 22.766 22.766 0 0 0 9.19 2.089 1.072 1.072 0 0 0 .418-2.089z" transform="translate(11.965 71.443)"/><circle id="Ellipse_1" cx="3.76" cy="3.76" r="3.76" transform="translate(41.356 80.205)"/><circle id="Ellipse_2" cx="3.76" cy="3.76" r="3.76" transform="translate(29.241 80.205)"/><circle id="Ellipse_3" cx="7.1" cy="7.1" r="7.1" class="cls-5" transform="translate(63.496)"/></g></g></symbol><symbol id="barley" viewBox="0 0 96 96"><defs><style>.cls-1{fill:#231f20}</style></defs><path d="M61.78 52.94l-.38-1.38-1.4.69a23.15 23.15 0 0 0-10 8.6v-6.54q8.25-2.58 10.32-8.26a14.3 14.3 0 0 0-1-11.7L58.66 33l-1.37.69a23 23 0 0 0-7.22 5.85v-5.19a11.65 11.65 0 0 0 7.93-6.2 20.47 20.47 0 0 0 .69-2.4V12.66a1.72 1.72 0 0 0-3.44 0v5.17h-.35a16.84 16.84 0 0 0-5.2 3.77V14a1.72 1.72 0 0 0-3.44 0v8a11.41 11.41 0 0 0-4.82-3.46h-.35v-5.88A1.72 1.72 0 0 0 39.3 11a1.74 1.74 0 0 0-1.65 1.65v13.09a4.93 4.93 0 0 0 .69 2.07A11.8 11.8 0 0 0 45.91 34v5.51a20.74 20.74 0 0 0-7.22-6.2l-1.37-.68-.69 1.37a14.33 14.33 0 0 0-1 11.71C37 49.14 40.76 51.89 46.26 54v6.19a23.2 23.2 0 0 0-10-8.6l-1.37-.69-.69 1.36a17 17 0 0 0-1.37 14.46Q36 73.39 46.28 77v6.2a1.72 1.72 0 1 0 3.44.14v-5.62c6.88-2.41 11.7-5.86 13.43-10.33a17 17 0 0 0-1.37-14.45zm-20-26.16a5.08 5.08 0 0 1 0-4.48 8.55 8.55 0 0 1 4.49 7 8.83 8.83 0 0 1 0 1.26 10 10 0 0 1-4.48-3.78zm-1.42 19.91a11.87 11.87 0 0 1-1.33-2 10.64 10.64 0 0 1 .34-7.23c.31.21.66.47 1 .78 2.65 2.09 6.75 6.27 5.85 12.3a11.75 11.75 0 0 1-5.86-3.85zm5.9 26.91l-.26-.11c0 .15 0 .29-.08.44a17.42 17.42 0 0 1-10-7.93 14.35 14.35 0 0 1 .35-10l.19.1c.06-.14.09-.29.15-.43 3.45 2.08 11.71 8.33 9.65 17.93zm8.25-51.29a5.09 5.09 0 0 1 0 4.47 8.45 8.45 0 0 1-4.47 3.79 9.12 9.12 0 0 1 4.47-8.26zM50 50.53a2.92 2.92 0 0 1 0-2.42v-.34c0-.21.07-.41.1-.62a10.13 10.13 0 0 1 1.1-3.69c.11-.23.22-.44.34-.66a13 13 0 0 1 5.33-5.31 10.72 10.72 0 0 1 .56 1.77 10.59 10.59 0 0 1-.22 5.47 11.7 11.7 0 0 1-7.22 5.85zM60.38 66c-1 2.52-3.14 4.49-6.24 6.18a16.88 16.88 0 0 1-2 1c-.55.24-1.11.49-1.7.73a14 14 0 0 1 1.55-10.09 22.26 22.26 0 0 1 7.75-7.78s0 .09.05.13L60 56a14.34 14.34 0 0 1 .94 7.4 13 13 0 0 1-.57 2.6z"/><path id="Path_24" d="M48 .5A47.5 47.5 0 1 0 95.5 48 47.5 47.5 0 0 0 48 .5zm0 91.9a44 44 0 1 1 .18 0z" class="cls-1"/></symbol><symbol id="bear-near" viewBox="0 0 96 96"><defs><style>.cls-1{fill:#fff}</style></defs><g id="Group_132"><path id="Path_50" d="M79.44.83H16.55a9 9 0 0 0-9 9v62.88a9 9 0 0 0 9 9h18L48 95.17l13.48-13.48h18a9 9 0 0 0 9-9V9.82A9 9 0 0 0 79.44.83z" class="cls-1"/><g id="Group_49"><path id="Path_49" d="M61.6 31.67h-.8A7.11 7.11 0 0 0 63 26.5a7.34 7.34 0 0 0-7.32-7.32 7.68 7.68 0 0 0-1.66.19 8.88 8.88 0 0 0-8.86-8 8.78 8.78 0 0 0-8.67 7.07 7.8 7.8 0 0 0-7.32 7.75 7.68 7.68 0 0 0 4.37 6.94V60a3.62 3.62 0 0 0 3.63 3.62h17A3.63 3.63 0 0 0 57.73 60v-2.2h3.81a6.14 6.14 0 0 0 5.29-6.8V38.43a6.09 6.09 0 0 0-5.23-6.76zM65 51a3.91 3.91 0 0 1-3.38 4.3h-3.83V34.07h3.81a4 4 0 0 1 3.4 4.31z"/><circle id="Ellipse_5" cx="59.33" cy="12.85" r="3.01"/></g></g></symbol><symbol id="beer-near" viewBox="0 0 96 96"><defs><style>.cls-1{fill:#fff}.cls-2{fill:#231f20}</style></defs><g id="Group_132"><path id="Path_50" d="M79.44.83H16.55a9 9 0 0 0-9 9v62.88a9 9 0 0 0 9 9h18L48 95.17l13.48-13.48h18a9 9 0 0 0 9-9V9.82A9 9 0 0 0 79.44.83z" class="cls-1"/><g id="Group_49"><path id="Path_49" d="M61.6 31.67h-.8A7.11 7.11 0 0 0 63 26.5a7.34 7.34 0 0 0-7.32-7.32 7.68 7.68 0 0 0-1.66.19 8.88 8.88 0 0 0-8.86-8 8.78 8.78 0 0 0-8.67 7.07 7.8 7.8 0 0 0-7.32 7.75 7.68 7.68 0 0 0 4.37 6.94V60a3.62 3.62 0 0 0 3.63 3.62h17A3.63 3.63 0 0 0 57.73 60v-2.2h3.81a6.14 6.14 0 0 0 5.29-6.8V38.43a6.09 6.09 0 0 0-5.23-6.76zM65 51a3.91 3.91 0 0 1-3.38 4.3h-3.83V34.07h3.81a4 4 0 0 1 3.4 4.31z" class="cls-2"/><circle id="Ellipse_5" cx="59.33" cy="12.85" r="3.01" class="cls-2"/></g></g></symbol><symbol id="beer" viewBox="0 0 96 96"><path id="Path_74" d="M72.71 37.38h-1.45A12.89 12.89 0 0 0 75.17 28a13.35 13.35 0 0 0-13.29-13.3 13.9 13.9 0 0 0-3 .33A16.14 16.14 0 0 0 42.77.5 16 16 0 0 0 27 13.36a14.17 14.17 0 0 0-13.3 14.07 14 14 0 0 0 7.91 12.64v48.84a6.62 6.62 0 0 0 6.59 6.59h30.88a6.62 6.62 0 0 0 6.6-6.59v-4h6.92a11.15 11.15 0 0 0 9.61-12.3V49.67a11.06 11.06 0 0 0-9.5-12.29zm6.15 35.2a7.14 7.14 0 0 1-6.15 7.83h-6.92V41.74h6.92a7.22 7.22 0 0 1 6.15 7.83z"/></symbol><symbol id="brewski-logo" viewBox="0 0 89.2 128.2"><style>.st0{fill:#ffe27d}.st1{fill:#ffc30d;stroke:#ffe27d;stroke-width:1.173;stroke-miterlimit:10}.st2{opacity:.75}.st3{fill:#fff}.st4{fill:#fbf4db;stroke:#ffe27e;stroke-width:1.193;stroke-miterlimit:10}</style><g id="handle" transform="translate(26.317 51.799)"><path id="Path_9" d="M50.3 62H13.1C6 62 .6 54.9.6 46.1V16.5C.6 7.7 6 .6 13.1.6h37.2c7.1 0 12.5 7.1 12.5 15.9v29.7c0 8.7-5.4 15.8-12.5 15.8zM13.1 6c-4.6 0-7.9 4.6-7.9 10v29.7c0 5.4 3.8 10 7.9 10h37.2c4.6 0 7.9-4.6 7.9-10V16.1c0-5.4-3.8-10-7.9-10L13.1 6z" class="st0"/></g><path id="beer" d="M61.2 42.8H16.9c-3.4.1-6.2 2.8-6.3 6.3v72.3c.1 3.4 2.8 6.2 6.3 6.3h44.3c3.4-.1 6.2-2.8 6.3-6.3V49.1c.4-3.8-2.6-6.3-6.3-6.3z" class="st1"/><g id="stripe-right" class="st2" transform="translate(43.444 62.242)"><path id="Path_11" d="M6.9 45.3H3.5c-1.6 0-2.9-1.2-2.9-2.8v-39C.6 1.9 1.8.6 3.4.6h3.4c1.6 0 2.9 1.2 2.9 2.8v38.9c0 1.6-1.3 2.9-2.8 3z" class="st3"/></g><g id="stripe-left" class="st2" transform="translate(25.482 62.242)"><path id="Path_12" d="M6.9 45.3H3.5c-1.6 0-2.9-1.2-2.9-2.8v-39C.6 1.9 1.8.6 3.4.6h3.4c1.6 0 2.9 1.2 2.9 2.8v38.9c0 1.6-1.3 2.9-2.8 3z" class="st3"/></g><path id="bubbles" d="M62.8 22.7c-1.3-.1-2.5.1-3.8.4C57.8 11.6 47.5 3.2 36 4.4c-9 1-16.4 7.7-18.3 16.7C8 21.6.4 29.7.6 39.4.7 49.6 8.9 57.7 19 57.8c7.4.1 14-4.4 16.7-11.3h2.5c2.9.1 5.7-.5 8.4-1.7 2.2 7.4 9 12.5 16.7 12.5 9.4.1 17-7.4 17.1-16.8v-.4C80 30.3 72 22.7 62.8 22.7z" class="st4"/><path id="moustache" d="M61.6 112.5c-.9-.4-1.8-1-2.5-1.7-.8-.8-1.3-1.7-2.1-2.1-2-3-3.8-6-5.4-9.2-.6-.9-1.3-1.8-2.1-2.5-1.4-1.4-3.5-2-5.5-1.6-1.5 0-3 .4-4.2 1.3-1.2-.8-2.7-1.3-4.2-1.3-1.9-.1-3.9.5-5.4 1.7-.8.7-1.5 1.6-2.1 2.5-2 3-3.8 6-5.4 9.2-.5.9-1.2 1.6-2.1 2.1-.7.7-1.6 1.3-2.5 1.7-1.3.4-1.3 2.1.4 2.1 3.2 0 6.3-.8 9.2-2.1 4.6-1.8 8.8-4.7 12.1-8.4 3.4 3.6 7.6 6.4 12.1 8.4 2.9 1.3 6 2 9.2 2.1.6.1 1.1-.4 1.2-1 .1-.5-.2-1-.7-1.2z"/><circle id="eye-right" cx="45.7" cy="84.6" r="3.8"/><circle id="eye-left" cx="33.6" cy="84.6" r="3.8"/><circle id="bubble" cx="71.2" cy="7.7" r="7.1" class="st4"/></symbol><symbol id="hops" viewBox="0 0 96 96"><defs><style>.cls-1{fill:#231f20}</style></defs><path id="Path_44" d="M73 39.07l-.34-1.73C70.55 20.82 53 18.41 48.52 18.41h-1c-4.13-.35-22 2.41-24.09 18.93l-.34 1.72 2.06.34h1.37a21.48 21.48 0 0 0 .34 11.36l.69 1.73 1.72-.69c1.17-.4 2.32-.86 3.44-1.37a18.65 18.65 0 0 0 4.09 16.18l1 1.36 1.36-1c.35 0 .35-.34.69-.69a20.17 20.17 0 0 0 7.58 11 1.25 1.25 0 0 0 1 .34 1.25 1.25 0 0 0 1-.34 17.37 17.37 0 0 0 7.93-12l.34.34 1.37 1 1-1.37a19.33 19.33 0 0 0 4.48-14.8c1.12.51 2.27 1 3.44 1.37l1.72.69.69-1.73a18.45 18.45 0 0 0 .35-11.36h1zm-22 10a5.81 5.81 0 0 1-2.06 2.06l-.69.69-.35.34c-.69-.34-1.36-1.36-2.41-2.06a12.74 12.74 0 0 1-3.09-6.88v-1.39a9.15 9.15 0 0 1 1-4.13 10.46 10.46 0 0 1 2.06-3.79c.35-.69.69-1 1-1.72.69-.69 1-1.37 1.72-2.06A20.54 20.54 0 0 1 51.62 35a16.36 16.36 0 0 1 1 2.4 9.19 9.19 0 0 1 1 4.13v2.07a10.49 10.49 0 0 1-2.69 5.45zm-8.33-17.24c-.34.34-.34.69-.69.69a.33.33 0 0 0-.34.32 17.33 17.33 0 0 1-10 3.45h-4.46c2.06-9 9.64-12 14.8-13.42a30.26 30.26 0 0 1 3.78-.69 20.36 20.36 0 0 1-1.36 6.54M29.93 48a13.44 13.44 0 0 1 .34-8.27h.35a24.89 24.89 0 0 0 7.57-1c.69-.34 1.37-.34 1.72-.69a8.52 8.52 0 0 0-.34 4.13 13.62 13.62 0 0 1-5.51 4.13 21.35 21.35 0 0 0-4.13 1.7zm9.64 13.77l-1 1a15.94 15.94 0 0 1-1.72-14.46A7.41 7.41 0 0 0 39.91 46a13.68 13.68 0 0 0 3.79 6.2l1.72 1.72a23.41 23.41 0 0 1-5.85 7.91zM54 64.88a13.84 13.84 0 0 1-5.5 9 13.44 13.44 0 0 1-5.52-9v-1.37a24.85 24.85 0 0 0 5.17-7.57c.34-.69.34-1.37.68-1.72.35.34.35 1 .69 1.37a26.61 26.61 0 0 0 4.82 6.53 6.82 6.82 0 0 0-.34 2.76zm4.48-3.1l-1.37-1.36A23.73 23.73 0 0 1 52 53.19l1-1a16.77 16.77 0 0 0 3.44-6.53 21.81 21.81 0 0 0 4.13 3.09 15.52 15.52 0 0 1-2.07 13.03zm9-13.77a18.47 18.47 0 0 1-3.79-1.72 20 20 0 0 1-5.19-3.79c-.35-.34-.69-1-1.37-1.36v-.7c0-1-.34-1.72-.34-2.75a12.88 12.88 0 0 0 3.44 1 30.73 30.73 0 0 0 6.19.69h.69a18 18 0 0 1 .34 8.62zm1.72-12h-3.47a13.9 13.9 0 0 1-10.33-3.49 13.28 13.28 0 0 1-2.75-3.44 16 16 0 0 1-1.72-7.23 20.72 20.72 0 0 1 4.13.69l.34.35a17.88 17.88 0 0 1 13.43 12.39 1.11 1.11 0 0 1 .34.69z" class="cls-1"/><path id="Path_24" d="M48 .5A47.5 47.5 0 1 0 95.5 48 47.5 47.5 0 0 0 48 .5zm0 91.9a44 44 0 1 1 .18 0z" class="cls-1"/></symbol><symbol id="close" viewBox="0 0 96 96"><path id="path" d="M95.5 10L86 .5l-38 38-38-38L.5 10l38 38-38 38 9.5 9.5 38-38 38 38 9.5-9.5-38-38z"/></symbol><symbol id="percent" viewBox="0 0 96 96"><defs><style>.cls-1{fill:none}.cls-2{fill:#231f20}</style></defs><path d="M63.48 26a2.11 2.11 0 0 1 2.41-.34 2.11 2.11 0 0 1 .34 2.4L32.51 69.34a1.82 1.82 0 0 1-1.37.69 1.28 1.28 0 0 1-1-.35 2.1 2.1 0 0 1-.34-2.4z" class="cls-1"/><path id="Path_20" d="M30.1 69.68a1.29 1.29 0 0 0 1 .35 2.61 2.61 0 0 0 1.36-.69L66.24 28a1.72 1.72 0 0 0-2.75-2L29.76 67.28a2.11 2.11 0 0 0 .34 2.4z" class="cls-2"/><path id="Path_24" d="M48 .5A47.5 47.5 0 1 0 95.5 48 47.5 47.5 0 0 0 48 .5zm0 91.9a44 44 0 1 1 .18 0z" class="cls-2"/><path d="M34.23 49.52a12.88 12.88 0 1 1 12.88-12.88 12.9 12.9 0 0 1-12.88 12.88zm0-22.76a9.88 9.88 0 1 0 9.88 9.88 9.89 9.89 0 0 0-9.88-9.88zm26.85 45.48A12.89 12.89 0 1 1 74 59.36a12.9 12.9 0 0 1-12.92 12.88zm0-22.77A9.89 9.89 0 1 0 71 59.36a9.91 9.91 0 0 0-9.92-9.89z" class="cls-2"/></symbol><symbol id="profile" viewBox="0 0 96 96"><circle cx="48" cy="24.47" r="23.53"/><path d="M48 59.77C32.29 59.77.93 67.65.93 83.3v11.77h94.14V83.3c0-15.65-31.36-23.53-47.07-23.53z"/></symbol><symbol id="thumbs-down" viewBox="0 0 96 96"><path id="Path_80" d="M61 4.82H22.09a8.57 8.57 0 0 0-7.94 5.27L1.1 40.53a8.68 8.68 0 0 0-.6 3.15v8.6A8.65 8.65 0 0 0 9.14 61h27.24l-4.1 19.74-.13 1.38a6.55 6.55 0 0 0 1.9 4.58l4.58 4.53 28.46-28.5a8.59 8.59 0 0 0 2.5-6.09V13.45A8.65 8.65 0 0 0 61 4.82zm17.28 0v51.82H95.5V4.82z"/></symbol><symbol id="taste" viewBox="0 0 96 96"><defs><style>.cls-1{fill:#231f20}</style></defs><path id="Path_24" d="M48 .5A47.5 47.5 0 1 0 95.5 48 47.5 47.5 0 0 0 48 .5zm0 91.9a44 44 0 1 1 .18 0z" class="cls-1"/><path id="Path_25" d="M52.13 21.18a30.35 30.35 0 0 0-4.47 1.37 36.16 36.16 0 0 1-4.13-1c-8.26-2.41-9.3-2.06-27.54 9-.69.35-.69 1-.69 1.72s.35 1 1 1.37a21 21 0 0 1 6.9 4.83 43.79 43.79 0 0 0 5.85 4.48 39.43 39.43 0 0 0 2.07 17.89c3.47 9.55 9.66 15.4 16.88 15.4s13.08-5.85 16.87-15.49a40 40 0 0 0 2.06-17.89 43.07 43.07 0 0 0 5.84-4.48 25.24 25.24 0 0 1 6.89-4.82c.68-.34 1-.69 1-1.36a2.64 2.64 0 0 0-.66-1.73c-18.58-11.7-19.61-12.04-27.87-9.29zm8.95 38.2C58 67.65 53.15 72.81 47.66 72.81S37 67.65 34.23 59.38a33.88 33.88 0 0 1-1.72-17.22A8.72 8.72 0 0 1 37 34.93a10.12 10.12 0 0 1 9 1.73V57a1.73 1.73 0 0 0 3.45.14V36.67c3.78-2.07 6.88-2.76 8.95-1.72a9.79 9.79 0 0 1 4.47 7.57 29.31 29.31 0 0 1-1.72 16.86zm9.3-24.09a52.17 52.17 0 0 1-4.48 3.79 13.74 13.74 0 0 0-3.78-6.54c-2.41-2.07-6.89-3.44-14.12.34-7.22-4.13-11.7-2.41-14.11-.34a12.63 12.63 0 0 0-3.78 6.19c-1.37-1-3.1-2.41-4.48-3.44l-5.16-4.13c15.14-9.3 15.83-9.3 22.37-7.23a44.84 44.84 0 0 0 4.82 1.37h1a44.84 44.84 0 0 0 4.82-1.37c6.89-2.06 7.23-2.06 22.37 7.23-2.06 1.38-3.78 2.75-5.51 4.13z" class="cls-1"/></symbol><symbol id="thumbs-up" viewBox="0 0 96 96"><path d="M.5 39.36h17.27v51.82H.5zm95 4.32a8.65 8.65 0 0 0-8.64-8.63H59.62l4.1-19.74.13-1.38A6.55 6.55 0 0 0 62 9.35l-4.63-4.53L29 33.27a8.46 8.46 0 0 0-2.55 6.09v43.19a8.65 8.65 0 0 0 8.64 8.63h38.82a8.57 8.57 0 0 0 7.94-5.27L94.9 55.47a8.68 8.68 0 0 0 .6-3.15v-8.25z"/></symbol><symbol id="thumbs" viewBox="0 0 96 96"><path d="M48 23.75a4 4 0 0 0-4-4H23.54L26.15 7.2l.08-.91a4.56 4.56 0 0 0-1.31-3.16L21.8 0 2.24 19.55a6 6 0 0 0-1.74 4.2v25.73a5.94 5.94 0 0 0 5.94 5.94h26.72a6 6 0 0 0 5.46-3.61l8.94-20.93A5.7 5.7 0 0 0 48 28.7zm41.56 15.83H62.84a6 6 0 0 0-5.46 3.61l-8.94 20.94A5.61 5.61 0 0 0 48 66.3v5a4 4 0 0 0 4 4h20.5l-2.65 12.5-.08 1a4.58 4.58 0 0 0 1.31 3.16L74.2 95l19.56-19.55a6 6 0 0 0 1.74-4.2V45.52a5.94 5.94 0 0 0-5.94-5.94z"/></symbol><symbol id="barley" viewBox="0 0 96 96"><defs><style>.cls-1{fill:#231f20}</style></defs><path d="M61.78 52.94l-.38-1.38-1.4.69a23.15 23.15 0 0 0-10 8.6v-6.54q8.25-2.58 10.32-8.26a14.3 14.3 0 0 0-1-11.7L58.66 33l-1.37.69a23 23 0 0 0-7.22 5.85v-5.19a11.65 11.65 0 0 0 7.93-6.2 20.47 20.47 0 0 0 .69-2.4V12.66a1.72 1.72 0 0 0-3.44 0v5.17h-.35a16.84 16.84 0 0 0-5.2 3.77V14a1.72 1.72 0 0 0-3.44 0v8a11.41 11.41 0 0 0-4.82-3.46h-.35v-5.88A1.72 1.72 0 0 0 39.3 11a1.74 1.74 0 0 0-1.65 1.65v13.09a4.93 4.93 0 0 0 .69 2.07A11.8 11.8 0 0 0 45.91 34v5.51a20.74 20.74 0 0 0-7.22-6.2l-1.37-.68-.69 1.37a14.33 14.33 0 0 0-1 11.71C37 49.14 40.76 51.89 46.26 54v6.19a23.2 23.2 0 0 0-10-8.6l-1.37-.69-.69 1.36a17 17 0 0 0-1.37 14.46Q36 73.39 46.28 77v6.2a1.72 1.72 0 1 0 3.44.14v-5.62c6.88-2.41 11.7-5.86 13.43-10.33a17 17 0 0 0-1.37-14.45zm-20-26.16a5.08 5.08 0 0 1 0-4.48 8.55 8.55 0 0 1 4.49 7 8.83 8.83 0 0 1 0 1.26 10 10 0 0 1-4.48-3.78zm-1.42 19.91a11.87 11.87 0 0 1-1.33-2 10.64 10.64 0 0 1 .34-7.23c.31.21.66.47 1 .78 2.65 2.09 6.75 6.27 5.85 12.3a11.75 11.75 0 0 1-5.86-3.85zm5.9 26.91l-.26-.11c0 .15 0 .29-.08.44a17.42 17.42 0 0 1-10-7.93 14.35 14.35 0 0 1 .35-10l.19.1c.06-.14.09-.29.15-.43 3.45 2.08 11.71 8.33 9.65 17.93zm8.25-51.29a5.09 5.09 0 0 1 0 4.47 8.45 8.45 0 0 1-4.47 3.79 9.12 9.12 0 0 1 4.47-8.26zM50 50.53a2.92 2.92 0 0 1 0-2.42v-.34c0-.21.07-.41.1-.62a10.13 10.13 0 0 1 1.1-3.69c.11-.23.22-.44.34-.66a13 13 0 0 1 5.33-5.31 10.72 10.72 0 0 1 .56 1.77 10.59 10.59 0 0 1-.22 5.47 11.7 11.7 0 0 1-7.22 5.85zM60.38 66c-1 2.52-3.14 4.49-6.24 6.18a16.88 16.88 0 0 1-2 1c-.55.24-1.11.49-1.7.73a14 14 0 0 1 1.55-10.09 22.26 22.26 0 0 1 7.75-7.78s0 .09.05.13L60 56a14.34 14.34 0 0 1 .94 7.4 13 13 0 0 1-.57 2.6z"/><path id="Path_24" d="M48 .5A47.5 47.5 0 1 0 95.5 48 47.5 47.5 0 0 0 48 .5zm0 91.9a44 44 0 1 1 .18 0z" class="cls-1"/></symbol><symbol id="bear-near" viewBox="0 0 96 96"><defs><style>.cls-1{fill:#fff}</style></defs><g id="Group_132"><path id="Path_50" d="M79.44.83H16.55a9 9 0 0 0-9 9v62.88a9 9 0 0 0 9 9h18L48 95.17l13.48-13.48h18a9 9 0 0 0 9-9V9.82A9 9 0 0 0 79.44.83z" class="cls-1"/><g id="Group_49"><path id="Path_49" d="M61.6 31.67h-.8A7.11 7.11 0 0 0 63 26.5a7.34 7.34 0 0 0-7.32-7.32 7.68 7.68 0 0 0-1.66.19 8.88 8.88 0 0 0-8.86-8 8.78 8.78 0 0 0-8.67 7.07 7.8 7.8 0 0 0-7.32 7.75 7.68 7.68 0 0 0 4.37 6.94V60a3.62 3.62 0 0 0 3.63 3.62h17A3.63 3.63 0 0 0 57.73 60v-2.2h3.81a6.14 6.14 0 0 0 5.29-6.8V38.43a6.09 6.09 0 0 0-5.23-6.76zM65 51a3.91 3.91 0 0 1-3.38 4.3h-3.83V34.07h3.81a4 4 0 0 1 3.4 4.31z"/><circle id="Ellipse_5" cx="59.33" cy="12.85" r="3.01"/></g></g></symbol><symbol id="beer-near" viewBox="0 0 96 96"><defs><style>.cls-1{fill:#fff}.cls-2{fill:#231f20}</style></defs><g id="Group_132"><path id="Path_50" d="M79.44.83H16.55a9 9 0 0 0-9 9v62.88a9 9 0 0 0 9 9h18L48 95.17l13.48-13.48h18a9 9 0 0 0 9-9V9.82A9 9 0 0 0 79.44.83z" class="cls-1"/><g id="Group_49"><path id="Path_49" d="M61.6 31.67h-.8A7.11 7.11 0 0 0 63 26.5a7.34 7.34 0 0 0-7.32-7.32 7.68 7.68 0 0 0-1.66.19 8.88 8.88 0 0 0-8.86-8 8.78 8.78 0 0 0-8.67 7.07 7.8 7.8 0 0 0-7.32 7.75 7.68 7.68 0 0 0 4.37 6.94V60a3.62 3.62 0 0 0 3.63 3.62h17A3.63 3.63 0 0 0 57.73 60v-2.2h3.81a6.14 6.14 0 0 0 5.29-6.8V38.43a6.09 6.09 0 0 0-5.23-6.76zM65 51a3.91 3.91 0 0 1-3.38 4.3h-3.83V34.07h3.81a4 4 0 0 1 3.4 4.31z" class="cls-2"/><circle id="Ellipse_5" cx="59.33" cy="12.85" r="3.01" class="cls-2"/></g></g></symbol><symbol id="beer" viewBox="0 0 96 96"><path id="Path_74" d="M72.71 37.38h-1.45A12.89 12.89 0 0 0 75.17 28a13.35 13.35 0 0 0-13.29-13.3 13.9 13.9 0 0 0-3 .33A16.14 16.14 0 0 0 42.77.5 16 16 0 0 0 27 13.36a14.17 14.17 0 0 0-13.3 14.07 14 14 0 0 0 7.91 12.64v48.84a6.62 6.62 0 0 0 6.59 6.59h30.88a6.62 6.62 0 0 0 6.6-6.59v-4h6.92a11.15 11.15 0 0 0 9.61-12.3V49.67a11.06 11.06 0 0 0-9.5-12.29zm6.15 35.2a7.14 7.14 0 0 1-6.15 7.83h-6.92V41.74h6.92a7.22 7.22 0 0 1 6.15 7.83z"/></symbol><symbol id="brewski-logo" viewBox="0 0 89.2 128.2"><style>.st0{fill:#ffe27d}.st1{fill:#ffc30d;stroke:#ffe27d;stroke-width:1.173;stroke-miterlimit:10}.st2{opacity:.75}.st3{fill:#fff}.st4{fill:#fbf4db;stroke:#ffe27e;stroke-width:1.193;stroke-miterlimit:10}</style><g id="handle" transform="translate(26.317 51.799)"><path id="Path_9" d="M50.3 62H13.1C6 62 .6 54.9.6 46.1V16.5C.6 7.7 6 .6 13.1.6h37.2c7.1 0 12.5 7.1 12.5 15.9v29.7c0 8.7-5.4 15.8-12.5 15.8zM13.1 6c-4.6 0-7.9 4.6-7.9 10v29.7c0 5.4 3.8 10 7.9 10h37.2c4.6 0 7.9-4.6 7.9-10V16.1c0-5.4-3.8-10-7.9-10L13.1 6z" class="st0"/></g><path id="beer" d="M61.2 42.8H16.9c-3.4.1-6.2 2.8-6.3 6.3v72.3c.1 3.4 2.8 6.2 6.3 6.3h44.3c3.4-.1 6.2-2.8 6.3-6.3V49.1c.4-3.8-2.6-6.3-6.3-6.3z" class="st1"/><g id="stripe-right" class="st2" transform="translate(43.444 62.242)"><path id="Path_11" d="M6.9 45.3H3.5c-1.6 0-2.9-1.2-2.9-2.8v-39C.6 1.9 1.8.6 3.4.6h3.4c1.6 0 2.9 1.2 2.9 2.8v38.9c0 1.6-1.3 2.9-2.8 3z" class="st3"/></g><g id="stripe-left" class="st2" transform="translate(25.482 62.242)"><path id="Path_12" d="M6.9 45.3H3.5c-1.6 0-2.9-1.2-2.9-2.8v-39C.6 1.9 1.8.6 3.4.6h3.4c1.6 0 2.9 1.2 2.9 2.8v38.9c0 1.6-1.3 2.9-2.8 3z" class="st3"/></g><path id="bubbles" d="M62.8 22.7c-1.3-.1-2.5.1-3.8.4C57.8 11.6 47.5 3.2 36 4.4c-9 1-16.4 7.7-18.3 16.7C8 21.6.4 29.7.6 39.4.7 49.6 8.9 57.7 19 57.8c7.4.1 14-4.4 16.7-11.3h2.5c2.9.1 5.7-.5 8.4-1.7 2.2 7.4 9 12.5 16.7 12.5 9.4.1 17-7.4 17.1-16.8v-.4C80 30.3 72 22.7 62.8 22.7z" class="st4"/><path id="moustache" d="M61.6 112.5c-.9-.4-1.8-1-2.5-1.7-.8-.8-1.3-1.7-2.1-2.1-2-3-3.8-6-5.4-9.2-.6-.9-1.3-1.8-2.1-2.5-1.4-1.4-3.5-2-5.5-1.6-1.5 0-3 .4-4.2 1.3-1.2-.8-2.7-1.3-4.2-1.3-1.9-.1-3.9.5-5.4 1.7-.8.7-1.5 1.6-2.1 2.5-2 3-3.8 6-5.4 9.2-.5.9-1.2 1.6-2.1 2.1-.7.7-1.6 1.3-2.5 1.7-1.3.4-1.3 2.1.4 2.1 3.2 0 6.3-.8 9.2-2.1 4.6-1.8 8.8-4.7 12.1-8.4 3.4 3.6 7.6 6.4 12.1 8.4 2.9 1.3 6 2 9.2 2.1.6.1 1.1-.4 1.2-1 .1-.5-.2-1-.7-1.2z"/><circle id="eye-right" cx="45.7" cy="84.6" r="3.8"/><circle id="eye-left" cx="33.6" cy="84.6" r="3.8"/><circle id="bubble" cx="71.2" cy="7.7" r="7.1" class="st4"/></symbol><symbol id="hops" viewBox="0 0 96 96"><defs><style>.cls-1{fill:#231f20}</style></defs><path id="Path_44" d="M73 39.07l-.34-1.73C70.55 20.82 53 18.41 48.52 18.41h-1c-4.13-.35-22 2.41-24.09 18.93l-.34 1.72 2.06.34h1.37a21.48 21.48 0 0 0 .34 11.36l.69 1.73 1.72-.69c1.17-.4 2.32-.86 3.44-1.37a18.65 18.65 0 0 0 4.09 16.18l1 1.36 1.36-1c.35 0 .35-.34.69-.69a20.17 20.17 0 0 0 7.58 11 1.25 1.25 0 0 0 1 .34 1.25 1.25 0 0 0 1-.34 17.37 17.37 0 0 0 7.93-12l.34.34 1.37 1 1-1.37a19.33 19.33 0 0 0 4.48-14.8c1.12.51 2.27 1 3.44 1.37l1.72.69.69-1.73a18.45 18.45 0 0 0 .35-11.36h1zm-22 10a5.81 5.81 0 0 1-2.06 2.06l-.69.69-.35.34c-.69-.34-1.36-1.36-2.41-2.06a12.74 12.74 0 0 1-3.09-6.88v-1.39a9.15 9.15 0 0 1 1-4.13 10.46 10.46 0 0 1 2.06-3.79c.35-.69.69-1 1-1.72.69-.69 1-1.37 1.72-2.06A20.54 20.54 0 0 1 51.62 35a16.36 16.36 0 0 1 1 2.4 9.19 9.19 0 0 1 1 4.13v2.07a10.49 10.49 0 0 1-2.69 5.45zm-8.33-17.24c-.34.34-.34.69-.69.69a.33.33 0 0 0-.34.32 17.33 17.33 0 0 1-10 3.45h-4.46c2.06-9 9.64-12 14.8-13.42a30.26 30.26 0 0 1 3.78-.69 20.36 20.36 0 0 1-1.36 6.54M29.93 48a13.44 13.44 0 0 1 .34-8.27h.35a24.89 24.89 0 0 0 7.57-1c.69-.34 1.37-.34 1.72-.69a8.52 8.52 0 0 0-.34 4.13 13.62 13.62 0 0 1-5.51 4.13 21.35 21.35 0 0 0-4.13 1.7zm9.64 13.77l-1 1a15.94 15.94 0 0 1-1.72-14.46A7.41 7.41 0 0 0 39.91 46a13.68 13.68 0 0 0 3.79 6.2l1.72 1.72a23.41 23.41 0 0 1-5.85 7.91zM54 64.88a13.84 13.84 0 0 1-5.5 9 13.44 13.44 0 0 1-5.52-9v-1.37a24.85 24.85 0 0 0 5.17-7.57c.34-.69.34-1.37.68-1.72.35.34.35 1 .69 1.37a26.61 26.61 0 0 0 4.82 6.53 6.82 6.82 0 0 0-.34 2.76zm4.48-3.1l-1.37-1.36A23.73 23.73 0 0 1 52 53.19l1-1a16.77 16.77 0 0 0 3.44-6.53 21.81 21.81 0 0 0 4.13 3.09 15.52 15.52 0 0 1-2.07 13.03zm9-13.77a18.47 18.47 0 0 1-3.79-1.72 20 20 0 0 1-5.19-3.79c-.35-.34-.69-1-1.37-1.36v-.7c0-1-.34-1.72-.34-2.75a12.88 12.88 0 0 0 3.44 1 30.73 30.73 0 0 0 6.19.69h.69a18 18 0 0 1 .34 8.62zm1.72-12h-3.47a13.9 13.9 0 0 1-10.33-3.49 13.28 13.28 0 0 1-2.75-3.44 16 16 0 0 1-1.72-7.23 20.72 20.72 0 0 1 4.13.69l.34.35a17.88 17.88 0 0 1 13.43 12.39 1.11 1.11 0 0 1 .34.69z" class="cls-1"/><path id="Path_24" d="M48 .5A47.5 47.5 0 1 0 95.5 48 47.5 47.5 0 0 0 48 .5zm0 91.9a44 44 0 1 1 .18 0z" class="cls-1"/></symbol><symbol id="close" viewBox="0 0 96 96"><path id="path" d="M95.5 10L86 .5l-38 38-38-38L.5 10l38 38-38 38 9.5 9.5 38-38 38 38 9.5-9.5-38-38z"/></symbol><symbol id="profile" viewBox="0 0 96 96"><circle cx="48" cy="24.47" r="23.53"/><path d="M48 59.77C32.29 59.77.93 67.65.93 83.3v11.77h94.14V83.3c0-15.65-31.36-23.53-47.07-23.53z"/></symbol><symbol id="percent" viewBox="0 0 96 96"><defs><style>.cls-1{fill:none}.cls-2{fill:#231f20}</style></defs><path d="M63.48 26a2.11 2.11 0 0 1 2.41-.34 2.11 2.11 0 0 1 .34 2.4L32.51 69.34a1.82 1.82 0 0 1-1.37.69 1.28 1.28 0 0 1-1-.35 2.1 2.1 0 0 1-.34-2.4z" class="cls-1"/><path id="Path_20" d="M30.1 69.68a1.29 1.29 0 0 0 1 .35 2.61 2.61 0 0 0 1.36-.69L66.24 28a1.72 1.72 0 0 0-2.75-2L29.76 67.28a2.11 2.11 0 0 0 .34 2.4z" class="cls-2"/><path id="Path_24" d="M48 .5A47.5 47.5 0 1 0 95.5 48 47.5 47.5 0 0 0 48 .5zm0 91.9a44 44 0 1 1 .18 0z" class="cls-2"/><path d="M34.23 49.52a12.88 12.88 0 1 1 12.88-12.88 12.9 12.9 0 0 1-12.88 12.88zm0-22.76a9.88 9.88 0 1 0 9.88 9.88 9.89 9.89 0 0 0-9.88-9.88zm26.85 45.48A12.89 12.89 0 1 1 74 59.36a12.9 12.9 0 0 1-12.92 12.88zm0-22.77A9.89 9.89 0 1 0 71 59.36a9.91 9.91 0 0 0-9.92-9.89z" class="cls-2"/></symbol><symbol id="taste" viewBox="0 0 96 96"><defs><style>.cls-1{fill:#231f20}</style></defs><path id="Path_24" d="M48 .5A47.5 47.5 0 1 0 95.5 48 47.5 47.5 0 0 0 48 .5zm0 91.9a44 44 0 1 1 .18 0z" class="cls-1"/><path id="Path_25" d="M52.13 21.18a30.35 30.35 0 0 0-4.47 1.37 36.16 36.16 0 0 1-4.13-1c-8.26-2.41-9.3-2.06-27.54 9-.69.35-.69 1-.69 1.72s.35 1 1 1.37a21 21 0 0 1 6.9 4.83 43.79 43.79 0 0 0 5.85 4.48 39.43 39.43 0 0 0 2.07 17.89c3.47 9.55 9.66 15.4 16.88 15.4s13.08-5.85 16.87-15.49a40 40 0 0 0 2.06-17.89 43.07 43.07 0 0 0 5.84-4.48 25.24 25.24 0 0 1 6.89-4.82c.68-.34 1-.69 1-1.36a2.64 2.64 0 0 0-.66-1.73c-18.58-11.7-19.61-12.04-27.87-9.29zm8.95 38.2C58 67.65 53.15 72.81 47.66 72.81S37 67.65 34.23 59.38a33.88 33.88 0 0 1-1.72-17.22A8.72 8.72 0 0 1 37 34.93a10.12 10.12 0 0 1 9 1.73V57a1.73 1.73 0 0 0 3.45.14V36.67c3.78-2.07 6.88-2.76 8.95-1.72a9.79 9.79 0 0 1 4.47 7.57 29.31 29.31 0 0 1-1.72 16.86zm9.3-24.09a52.17 52.17 0 0 1-4.48 3.79 13.74 13.74 0 0 0-3.78-6.54c-2.41-2.07-6.89-3.44-14.12.34-7.22-4.13-11.7-2.41-14.11-.34a12.63 12.63 0 0 0-3.78 6.19c-1.37-1-3.1-2.41-4.48-3.44l-5.16-4.13c15.14-9.3 15.83-9.3 22.37-7.23a44.84 44.84 0 0 0 4.82 1.37h1a44.84 44.84 0 0 0 4.82-1.37c6.89-2.06 7.23-2.06 22.37 7.23-2.06 1.38-3.78 2.75-5.51 4.13z" class="cls-1"/></symbol><symbol id="thumbs-down" viewBox="0 0 96 96"><path id="Path_80" d="M61 4.82H22.09a8.57 8.57 0 0 0-7.94 5.27L1.1 40.53a8.68 8.68 0 0 0-.6 3.15v8.6A8.65 8.65 0 0 0 9.14 61h27.24l-4.1 19.74-.13 1.38a6.55 6.55 0 0 0 1.9 4.58l4.58 4.53 28.46-28.5a8.59 8.59 0 0 0 2.5-6.09V13.45A8.65 8.65 0 0 0 61 4.82zm17.28 0v51.82H95.5V4.82z"/></symbol><symbol id="thumbs-up" viewBox="0 0 96 96"><path d="M.5 39.36h17.27v51.82H.5zm95 4.32a8.65 8.65 0 0 0-8.64-8.63H59.62l4.1-19.74.13-1.38A6.55 6.55 0 0 0 62 9.35l-4.63-4.53L29 33.27a8.46 8.46 0 0 0-2.55 6.09v43.19a8.65 8.65 0 0 0 8.64 8.63h38.82a8.57 8.57 0 0 0 7.94-5.27L94.9 55.47a8.68 8.68 0 0 0 .6-3.15v-8.25z"/></symbol><symbol id="thumbs" viewBox="0 0 96 96"><path d="M48 23.75a4 4 0 0 0-4-4H23.54L26.15 7.2l.08-.91a4.56 4.56 0 0 0-1.31-3.16L21.8 0 2.24 19.55a6 6 0 0 0-1.74 4.2v25.73a5.94 5.94 0 0 0 5.94 5.94h26.72a6 6 0 0 0 5.46-3.61l8.94-20.93A5.7 5.7 0 0 0 48 28.7zm41.56 15.83H62.84a6 6 0 0 0-5.46 3.61l-8.94 20.94A5.61 5.61 0 0 0 48 66.3v5a4 4 0 0 0 4 4h20.5l-2.65 12.5-.08 1a4.58 4.58 0 0 0 1.31 3.16L74.2 95l19.56-19.55a6 6 0 0 0 1.74-4.2V45.52a5.94 5.94 0 0 0-5.94-5.94z"/></symbol></svg>