<svg xmlns="http://www.w3.org/2000/svg"><symbol id="barley" viewBox="0 0 96 96"><defs><style>.cls-1{fill:#231f20}</style></defs><path id="Path_33" d="M48 .5A47.5 47.5 0 1 0 95.5 48 47.5 47.5 0 0 0 48 .5zm0 91.56A44.06 44.06 0 1 1 92.06 48a43.93 43.93 0 0 1-43.79 44.06z" class="cls-1"/><path d="M61.78 52.94l-.38-1.38-1.4.69a23.15 23.15 0 0 0-10 8.6v-6.54q8.25-2.58 10.32-8.26a14.3 14.3 0 0 0-1-11.7L58.66 33l-1.37.69a23 23 0 0 0-7.22 5.85v-5.19a11.65 11.65 0 0 0 7.93-6.2 20.47 20.47 0 0 0 .69-2.4V12.66a1.72 1.72 0 0 0-3.44 0v5.17h-.35a16.84 16.84 0 0 0-5.2 3.77V14a1.72 1.72 0 0 0-3.44 0v8a11.41 11.41 0 0 0-4.82-3.46h-.35v-5.88A1.72 1.72 0 0 0 39.3 11a1.74 1.74 0 0 0-1.65 1.65v13.09a4.93 4.93 0 0 0 .69 2.07A11.8 11.8 0 0 0 45.91 34v5.51a20.74 20.74 0 0 0-7.22-6.2l-1.37-.68-.69 1.37a14.33 14.33 0 0 0-1 11.71C37 49.14 40.76 51.89 46.26 54v6.19a23.2 23.2 0 0 0-10-8.6l-1.37-.69-.69 1.36a17 17 0 0 0-1.37 14.46Q36 73.39 46.28 77v6.2a1.72 1.72 0 1 0 3.44.14v-5.62c6.88-2.41 11.7-5.86 13.43-10.33a17 17 0 0 0-1.37-14.45zm-20-26.16a5.08 5.08 0 0 1 0-4.48 8.55 8.55 0 0 1 4.49 7 8.83 8.83 0 0 1 0 1.26 10 10 0 0 1-4.48-3.78zm-1.42 19.91a11.87 11.87 0 0 1-1.33-2 10.64 10.64 0 0 1 .34-7.23c.31.21.66.47 1 .78 2.65 2.09 6.75 6.27 5.85 12.3a11.75 11.75 0 0 1-5.86-3.85zm5.9 26.91l-.26-.11c0 .15 0 .29-.08.44a17.42 17.42 0 0 1-10-7.93 14.35 14.35 0 0 1 .35-10l.19.1c.06-.14.09-.29.15-.43 3.45 2.08 11.71 8.33 9.65 17.93zm8.25-51.29a5.09 5.09 0 0 1 0 4.47 8.45 8.45 0 0 1-4.47 3.79 9.12 9.12 0 0 1 4.47-8.26zM50 50.53a2.92 2.92 0 0 1 0-2.42v-.34c0-.21.07-.41.1-.62a10.13 10.13 0 0 1 1.1-3.69c.11-.23.22-.44.34-.66a13 13 0 0 1 5.33-5.31 10.72 10.72 0 0 1 .56 1.77 10.59 10.59 0 0 1-.22 5.47 11.7 11.7 0 0 1-7.22 5.85zM60.38 66c-1 2.52-3.14 4.49-6.24 6.18a16.88 16.88 0 0 1-2 1c-.55.24-1.11.49-1.7.73a14 14 0 0 1 1.55-10.09 22.26 22.26 0 0 1 7.75-7.78s0 .09.05.13L60 56a14.34 14.34 0 0 1 .94 7.4 13 13 0 0 1-.57 2.6z" class="cls-1"/></symbol><symbol id="beer" viewBox="0 0 96 96"><defs><style>.cls-1{fill:#231f20}</style></defs><path id="Path_74" d="M72.71 37.38h-1.45A12.89 12.89 0 0 0 75.17 28a13.35 13.35 0 0 0-13.29-13.3 13.9 13.9 0 0 0-3 .33A16.14 16.14 0 0 0 42.77.5 16 16 0 0 0 27 13.36a14.17 14.17 0 0 0-13.3 14.07 14 14 0 0 0 7.91 12.64v48.84a6.62 6.62 0 0 0 6.59 6.59h30.88a6.62 6.62 0 0 0 6.6-6.59v-4h6.92a11.15 11.15 0 0 0 9.61-12.3V49.67a11.06 11.06 0 0 0-9.5-12.29zm6.15 35.2a7.14 7.14 0 0 1-6.15 7.83h-6.92V41.74h6.92a7.22 7.22 0 0 1 6.15 7.83z" class="cls-1"/></symbol><symbol id="beer-near" viewBox="0 0 96 96"><defs><style>.cls-1{fill:#fff}.cls-2{fill:#231f20}</style></defs><g id="Group_132"><path id="Path_50" d="M79.44.83H16.55a9 9 0 0 0-9 9v62.88a9 9 0 0 0 9 9h18L48 95.17l13.48-13.48h18a9 9 0 0 0 9-9V9.82A9 9 0 0 0 79.44.83z" class="cls-1"/><g id="Group_49"><path id="Path_49" d="M61.6 31.67h-.8A7.11 7.11 0 0 0 63 26.5a7.34 7.34 0 0 0-7.32-7.32 7.68 7.68 0 0 0-1.66.19 8.88 8.88 0 0 0-8.86-8 8.78 8.78 0 0 0-8.67 7.07 7.8 7.8 0 0 0-7.32 7.75 7.68 7.68 0 0 0 4.37 6.94V60a3.62 3.62 0 0 0 3.63 3.62h17A3.63 3.63 0 0 0 57.73 60v-2.2h3.81a6.14 6.14 0 0 0 5.29-6.8V38.43a6.09 6.09 0 0 0-5.23-6.76zM65 51a3.91 3.91 0 0 1-3.38 4.3h-3.83V34.07h3.81a4 4 0 0 1 3.4 4.31z" class="cls-2"/><circle id="Ellipse_5" cx="59.33" cy="12.85" r="3.01" class="cls-2"/></g></g></symbol><symbol id="close" viewBox="0 0 96 96"><defs><style>.cls-1{fill:#231f20}</style></defs><path id="path" d="M95.5 10L86 .5l-38 38-38-38L.5 10l38 38-38 38 9.5 9.5 38-38 38 38 9.5-9.5-38-38z" class="cls-1"/></symbol><symbol id="brewski-logo" viewBox="0 0 89.2 128.2"><style>.st0{fill:#ffe27d}.st1{fill:#ffc30d;stroke:#ffe27d;stroke-width:1.173;stroke-miterlimit:10}.st2{opacity:.75}.st3{fill:#fff}.st4{fill:#fbf4db;stroke:#ffe27e;stroke-width:1.193;stroke-miterlimit:10}</style><g id="handle" transform="translate(26.317 51.799)"><path id="Path_9" d="M50.3 62H13.1C6 62 .6 54.9.6 46.1V16.5C.6 7.7 6 .6 13.1.6h37.2c7.1 0 12.5 7.1 12.5 15.9v29.7c0 8.7-5.4 15.8-12.5 15.8zM13.1 6c-4.6 0-7.9 4.6-7.9 10v29.7c0 5.4 3.8 10 7.9 10h37.2c4.6 0 7.9-4.6 7.9-10V16.1c0-5.4-3.8-10-7.9-10L13.1 6z" class="st0"/></g><path id="beer" d="M61.2 42.8H16.9c-3.4.1-6.2 2.8-6.3 6.3v72.3c.1 3.4 2.8 6.2 6.3 6.3h44.3c3.4-.1 6.2-2.8 6.3-6.3V49.1c.4-3.8-2.6-6.3-6.3-6.3z" class="st1"/><g id="stripe-right" class="st2" transform="translate(43.444 62.242)"><path id="Path_11" d="M6.9 45.3H3.5c-1.6 0-2.9-1.2-2.9-2.8v-39C.6 1.9 1.8.6 3.4.6h3.4c1.6 0 2.9 1.2 2.9 2.8v38.9c0 1.6-1.3 2.9-2.8 3z" class="st3"/></g><g id="stripe-left" class="st2" transform="translate(25.482 62.242)"><path id="Path_12" d="M6.9 45.3H3.5c-1.6 0-2.9-1.2-2.9-2.8v-39C.6 1.9 1.8.6 3.4.6h3.4c1.6 0 2.9 1.2 2.9 2.8v38.9c0 1.6-1.3 2.9-2.8 3z" class="st3"/></g><path id="bubbles" d="M62.8 22.7c-1.3-.1-2.5.1-3.8.4C57.8 11.6 47.5 3.2 36 4.4c-9 1-16.4 7.7-18.3 16.7C8 21.6.4 29.7.6 39.4.7 49.6 8.9 57.7 19 57.8c7.4.1 14-4.4 16.7-11.3h2.5c2.9.1 5.7-.5 8.4-1.7 2.2 7.4 9 12.5 16.7 12.5 9.4.1 17-7.4 17.1-16.8v-.4C80 30.3 72 22.7 62.8 22.7z" class="st4"/><path id="moustache" d="M61.6 112.5c-.9-.4-1.8-1-2.5-1.7-.8-.8-1.3-1.7-2.1-2.1-2-3-3.8-6-5.4-9.2-.6-.9-1.3-1.8-2.1-2.5-1.4-1.4-3.5-2-5.5-1.6-1.5 0-3 .4-4.2 1.3-1.2-.8-2.7-1.3-4.2-1.3-1.9-.1-3.9.5-5.4 1.7-.8.7-1.5 1.6-2.1 2.5-2 3-3.8 6-5.4 9.2-.5.9-1.2 1.6-2.1 2.1-.7.7-1.6 1.3-2.5 1.7-1.3.4-1.3 2.1.4 2.1 3.2 0 6.3-.8 9.2-2.1 4.6-1.8 8.8-4.7 12.1-8.4 3.4 3.6 7.6 6.4 12.1 8.4 2.9 1.3 6 2 9.2 2.1.6.1 1.1-.4 1.2-1 .1-.5-.2-1-.7-1.2z"/><circle id="eye-right" cx="45.7" cy="84.6" r="3.8"/><circle id="eye-left" cx="33.6" cy="84.6" r="3.8"/><circle id="bubble" cx="71.2" cy="7.7" r="7.1" class="st4"/></symbol><symbol id="hops" viewBox="0 0 96 96"><defs><style>.cls-1{fill:#231f20}.cls-2{fill:none}.cls-3{fill:#b68c2d}</style></defs><g id="Group_35"><path id="Path_35" d="M48 95.5A47.5 47.5 0 1 1 95.5 48 47.5 47.5 0 0 1 48 95.5zm0-91.56A44.06 44.06 0 1 0 92.06 48 43.93 43.93 0 0 0 48.27 3.94z" class="cls-1"/><g id="Group_28"><path id="Path_36" d="M39.74 36.64c-.69.35-1 .69-1.72.69a27 27 0 0 1-7.58 1h-.34a16.3 16.3 0 0 0-.34 8.26c1.36-.68 2.75-1 4.13-1.72a25.47 25.47 0 0 0 5.5-4.13 16.88 16.88 0 0 1 .35-4.1z" class="cls-2"/><path id="Path_37" d="M43.87 51.44a18.73 18.73 0 0 1-3.79-6.19c-1 .69-2.06 1.72-3.1 2.41a15.83 15.83 0 0 0 1.73 14.45l1-1a20.87 20.87 0 0 0 5.52-7.91 8 8 0 0 0-1.36-1.76z" class="cls-2"/><path id="Path_38" d="M41.8 31.81a.34.34 0 0 1 .33-.34c.34-.34.34-.69.69-.69.34-.34.69-1 1-1.37a2.61 2.61 0 0 0 .69-1.72 18.58 18.58 0 0 0 1.38-6.54 18 18 0 0 0-3.79.69c-5.1 1.37-12.69 4.48-14.75 13.43h4.13a17.54 17.54 0 0 0 10.32-3.46z" class="cls-2"/><path id="Path_39" d="M53.85 41.12v-1a9.28 9.28 0 0 0-1-4.13 5.11 5.11 0 0 0-1-2.41c-1-1.36-2.06-3.09-3.44-4.82-.69.69-1 1.37-1.72 2.07-.34.69-.69 1-1 1.72-.69 1.37-1.37 2.41-2.07 3.79a18.37 18.37 0 0 0-1 4.13v1.36a14.11 14.11 0 0 0 3.1 6.89A6.39 6.39 0 0 0 48 50.74l.34-.34c.35 0 .35-.34.69-.69.69-.34 1-1 1.72-1.72a.34.34 0 0 1 .33-.35 12.66 12.66 0 0 0 2.75-6.19z" class="cls-2"/><path id="Path_40" d="M48.69 52.82c-.35.69-.35 1.37-.69 1.72a24.69 24.69 0 0 1-5.16 7.57v1.37a13.8 13.8 0 0 0 5.5 9 13.43 13.43 0 0 0 5.51-9v-2.73A26.77 26.77 0 0 1 49 54.19c.38-.34 0-1.03-.31-1.37z" class="cls-2"/><path id="Path_41" d="M53.16 50.75l-1 1A23.68 23.68 0 0 0 57.29 59l1.37 1.37a15.36 15.36 0 0 0 2.07-13.07 21.13 21.13 0 0 1-4.12-3.09 14.73 14.73 0 0 1-3.45 6.54z" class="cls-2"/><path id="Path_42" d="M55.57 21.84c-.34 0-.34 0-.69-.34a18.45 18.45 0 0 0-4.13-.35 16.06 16.06 0 0 0 1.72 7.23 6.86 6.86 0 0 0 2.76 3.43 17.53 17.53 0 0 0 10.32 3.45H69c0-.35 0-.35-.34-.69-1.38-7.91-7.93-11.35-13.09-12.73z" class="cls-2"/><path id="Path_43" d="M60.39 37.67A31.41 31.41 0 0 1 57 36.64a7.54 7.54 0 0 1 .34 2.75v.69c.35.35.69 1 1.37 1.37a20.22 20.22 0 0 0 5.16 3.79A40.36 40.36 0 0 0 67.61 47a16.41 16.41 0 0 0-.35-8.26h-.68a16.75 16.75 0 0 1-6.19-1.07z" class="cls-2"/><path id="Path_44" d="M73.13 38l-.35-1.72c-2.06-16.5-19.62-18.92-24.09-18.92h-1c-4.13-.34-22 2.41-24.1 18.93L23.22 38l2.06.35h1.37A21.48 21.48 0 0 0 27 49.72l.69 1.72 1.72-.69a35.18 35.18 0 0 0 3.44-1.37A18.61 18.61 0 0 0 37 65.56l1 1.37 1.37-1c.34 0 .34-.34.68-.68a20.14 20.14 0 0 0 7.58 11 1.25 1.25 0 0 0 1 .34 1.25 1.25 0 0 0 1-.34 17.35 17.35 0 0 0 7.93-12l.35.35 1.36 1 1-1.37a19.35 19.35 0 0 0 4.47-14.8 35.18 35.18 0 0 0 3.44 1.37l1.72.69.69-1.72a18.46 18.46 0 0 0 .35-11.36h1zm-22 10A5.81 5.81 0 0 1 49 50.06l-.69.69-.31.35c-.69-.35-1.36-1.37-2.41-2.07a12.74 12.74 0 0 1-3.09-6.88v-1.37a9.15 9.15 0 0 1 1-4.13 10.34 10.34 0 0 1 2.06-3.78c.35-.69.69-1 1-1.73.69-.68 1-1.36 1.72-2.06a21 21 0 0 1 3.44 4.82 16 16 0 0 1 1 2.41 9.13 9.13 0 0 1 1 4.13v2.06A10.49 10.49 0 0 1 51.1 48zM27.35 35.27c2.06-9 9.64-12.05 14.8-13.43a30.26 30.26 0 0 1 3.78-.69 20.1 20.1 0 0 1-1.36 6.54c-.35.69-.69 1-.69 1.72a4.65 4.65 0 0 1-1 1.37c-.34.35-.34.69-.68.69a.34.34 0 0 0-.35.33 17.27 17.27 0 0 1-10 3.46zM30.1 47a13.41 13.41 0 0 1 .34-8.26h.35a25.21 25.21 0 0 0 7.57-1c.69-.34 1.37-.34 1.72-.68a8.5 8.5 0 0 0-.34 4.13 13.68 13.68 0 0 1-5.51 4.12A21.35 21.35 0 0 0 30.1 47zm9.64 13.77l-1 1A15.93 15.93 0 0 1 37 47.32a7.58 7.58 0 0 0 3.1-2.41 13.6 13.6 0 0 0 3.79 6.19l1.72 1.72a23.44 23.44 0 0 1-5.85 7.92zm14.45 3.09a13.8 13.8 0 0 1-5.5 9 13.44 13.44 0 0 1-5.52-9v-1.39a24.77 24.77 0 0 0 5.17-7.58c.34-.68.34-1.36.69-1.72.34.35.34 1 .68 1.37a26.92 26.92 0 0 0 4.82 6.54 6.75 6.75 0 0 0-.34 2.75zm4.48-3.09l-1.37-1.4a23.61 23.61 0 0 1-5.16-7.23l1-1a16.81 16.81 0 0 0 3.44-6.54 22.3 22.3 0 0 0 4.13 3.1 15.49 15.49 0 0 1-2.04 13.04zm9-13.77a18.51 18.51 0 0 1-3.79-1.73 20 20 0 0 1-5.16-3.78c-.34-.35-.69-1-1.37-1.37v-.7c0-1-.34-1.72-.34-2.75a12.88 12.88 0 0 0 3.44 1 30.73 30.73 0 0 0 6.19.69h.69a18.05 18.05 0 0 1 .29 8.64zm1.72-12H65.9a13.93 13.93 0 0 1-10.33-3.44A13.45 13.45 0 0 1 52.82 28a16.06 16.06 0 0 1-1.72-7.23 20.72 20.72 0 0 1 4.13.69l.34.34A17.9 17.9 0 0 1 69 34.23a1.14 1.14 0 0 1 .34.69z" class="cls-1"/><path id="Path_45" d="M55.23 21.84c.34 0 .34.35.69.35z" class="cls-3"/><path id="Path_46" d="M46.62 30.79c-.34.69-.69 1-1 1.72.31-.69.66-1.03 1-1.72z" class="cls-3"/></g></g></symbol><symbol id="profile" viewBox="0 0 96 96"><style>.st0{fill:#010101}</style><path d="M48 48c13 0 23.5-10.5 23.5-23.5S61 .9 48 .9 24.5 11.4 24.5 24.4C24.5 37.5 35 48 48 48zm0 11.8C32.3 59.8.9 67.7.9 83.3v11.8H95V83.3c.1-15.6-31.3-23.5-47-23.5z" class="st0"/></symbol><symbol id="percent" viewBox="0 0 96 96"><defs><style>.cls-1{fill:none}.cls-2{fill:#231f20}</style></defs><g id="Group_33"><g id="Group_22"><path id="Path_15" d="M48 92.06A44.06 44.06 0 1 0 3.94 48 44.15 44.15 0 0 0 48 92.06zm23.41-32.7A10.33 10.33 0 1 1 61.08 49a10.35 10.35 0 0 1 10.33 10.36zM63.48 26a2.11 2.11 0 0 1 2.41-.34 2.11 2.11 0 0 1 .34 2.4L32.51 69.34a1.82 1.82 0 0 1-1.37.69 1.28 1.28 0 0 1-1-.35 2.1 2.1 0 0 1-.34-2.4zm-29.25.69A10.35 10.35 0 0 1 44.55 37a10.14 10.14 0 0 1-9.95 10.31h-.37a10.14 10.14 0 0 1-10.33-10V37a10.14 10.14 0 0 1 10-10.33z" class="cls-1"/><circle id="Ellipse_4" cx="61.08" cy="59.36" r="6.88" class="cls-1"/><path id="Path_16" d="M34.23 43.53a6.89 6.89 0 1 0-6.88-6.89 6.88 6.88 0 0 0 6.88 6.89z" class="cls-1"/><path id="Path_17" d="M48 95.5A47.5 47.5 0 1 0 .5 48 47.5 47.5 0 0 0 48 95.5zm0-91.56A44.06 44.06 0 1 1 3.94 48 44.15 44.15 0 0 1 48 3.94z" class="cls-2"/><path id="Path_18" d="M34.23 47a10.36 10.36 0 0 0 10.33-10.36 10.16 10.16 0 0 0-10-10.33h-.37a10.14 10.14 0 0 0-10.32 10 2.29 2.29 0 0 0 0 .37A10.14 10.14 0 0 0 33.86 47zm0-16.87A6.89 6.89 0 1 1 27.35 37a6.9 6.9 0 0 1 6.88-6.9z" class="cls-2"/><path id="Path_19" d="M51.1 59.36A10.33 10.33 0 1 0 61.42 49 10.35 10.35 0 0 0 51.1 59.36zm16.86 0a6.88 6.88 0 1 1-6.88-6.89A6.91 6.91 0 0 1 68 59.36z" class="cls-2"/><path id="Path_20" d="M30.1 69.68a1.29 1.29 0 0 0 1 .35 2.61 2.61 0 0 0 1.36-.69L66.24 28a1.72 1.72 0 0 0-2.75-2L29.76 67.28a2.11 2.11 0 0 0 .34 2.4z" class="cls-2"/></g></g></symbol><symbol id="taste" viewBox="0 0 96 96"><defs><style>.cls-1{fill:none}.cls-2{fill:#231f20}</style></defs><g id="Group_36"><path id="Path_21" d="M62.79 48.69a9.77 9.77 0 0 0-4.48-7.57 10.13 10.13 0 0 0-9 1.72v20.31a1.71 1.71 0 0 1-1.79 1.65 1.74 1.74 0 0 1-1.65-1.65V42.84c-3.78-2.07-6.88-2.76-9-1.73a9.8 9.8 0 0 0-4.47 7.23 38.26 38.26 0 0 0 1.72 17.22C37.32 73.82 42.15 79 47.64 79s10.67-5.17 13.43-13.43a35.91 35.91 0 0 0 1.72-16.87z" class="cls-1"/><path id="Path_22" d="M48 3.94A44.06 44.06 0 1 0 92.06 48 44.15 44.15 0 0 0 48 3.94zm32.36 34.42c0 .69-.35 1-1 1.37a20.8 20.8 0 0 0-6.88 4.82c-1.72 1.36-3.79 3.09-5.85 4.47a40 40 0 0 1-2.07 17.9c-3.44 9.64-9.64 15.49-16.86 15.49s-13.12-5.85-16.91-15.49A40.17 40.17 0 0 1 28.72 49c-2.06-1.36-4.13-3.09-5.85-4.47a25.19 25.19 0 0 0-6.87-4.8c-.69-.35-1-.69-1-1.37a2.6 2.6 0 0 1 .68-1.72c18.25-11.36 19.28-11.7 27.54-8.95a34.62 34.62 0 0 0 4.13 1c1.72-.34 3.1-1 4.48-1.36 8.26-2.41 9.29-2.07 27.53 9a3 3 0 0 1 1 2.03z" class="cls-1"/><path id="Path_23" d="M52.82 30.79A42.65 42.65 0 0 1 48 32.16h-1a42.65 42.65 0 0 1-4.82-1.37c-6.89-2.06-7.23-2.06-22.37 7.23a27.36 27.36 0 0 1 5.16 4.13 53.18 53.18 0 0 0 4.47 3.45 12.68 12.68 0 0 1 3.79-6.2c2.41-2.06 6.88-3.44 14.11.35 7.23-4.13 11.7-2.41 14.11-.35a12.28 12.28 0 0 1 3.79 6.54 23.76 23.76 0 0 0 4.47-3.78L74.85 38c-14.8-9.28-15.49-9.28-22.03-7.21z" class="cls-1"/><path id="Path_24" d="M48 .5A47.5 47.5 0 1 0 95.5 48 47.5 47.5 0 0 0 48 .5zm0 91.9a44 44 0 1 1 .18 0z" class="cls-2"/><path id="Path_25" d="M51.79 27.69a31.73 31.73 0 0 0-4.48 1.37 36.65 36.65 0 0 1-4.13-1C34.92 25.62 33.89 26 15.64 37c-.64.32-.64 1-.64 1.7s.34 1 1 1.36a21.06 21.06 0 0 1 6.89 4.83 42.45 42.45 0 0 0 5.86 4.48 39.49 39.49 0 0 0 2.06 17.9c3.44 9.64 9.64 15.49 16.87 15.49s13.07-5.86 16.85-15.49a40 40 0 0 0 2.07-17.9 42.88 42.88 0 0 0 5.84-4.48 25.15 25.15 0 0 1 6.88-4.81c.69-.35 1-.69 1-1.37a2.56 2.56 0 0 0-.66-1.71c-18.58-11.72-19.61-12.06-27.87-9.31zm9 38.21c-3.1 8.26-7.93 13.42-13.43 13.42S36.65 74.16 33.89 65.9a33.91 33.91 0 0 1-1.73-17.22 8.71 8.71 0 0 1 4.48-7.23 10.11 10.11 0 0 1 9 1.72v20.31a1.72 1.72 0 0 0 3.44.14V43.18c3.79-2.06 6.88-2.75 8.95-1.72A9.84 9.84 0 0 1 62.46 49a29.43 29.43 0 0 1-1.73 16.9zM70 41.8a52 52 0 0 1-4.47 3.79 13.76 13.76 0 0 0-3.79-6.54c-2.41-2.06-6.88-3.44-14.11.34-7.2-4.13-11.63-2.39-14.08-.34a12.65 12.65 0 0 0-3.79 6.19c-1.37-1-3.1-2.4-4.47-3.44l-5.17-4.13c15.15-9.29 15.88-9.29 22.37-7.23a42.65 42.65 0 0 0 4.82 1.37h1a42.65 42.65 0 0 0 4.82-1.37c6.88-2.06 7.22-2.06 22.37 7.23-2.07 1.38-3.79 2.76-5.51 4.13z" class="cls-2"/></g></symbol><symbol id="thumbs-down" viewBox="0 0 96 96"><defs><style>.cls-1{fill:#231f20}</style></defs><path id="Path_80" d="M61 4.82H22.09a8.57 8.57 0 0 0-7.94 5.27L1.1 40.53a8.68 8.68 0 0 0-.6 3.15v8.6A8.65 8.65 0 0 0 9.14 61h27.24l-4.1 19.74-.13 1.38a6.55 6.55 0 0 0 1.9 4.58l4.58 4.53 28.46-28.5a8.59 8.59 0 0 0 2.5-6.09V13.45A8.65 8.65 0 0 0 61 4.82zm17.28 0v51.82H95.5V4.82z" class="cls-1"/></symbol><symbol id="thumbs-up" viewBox="0 0 96 96"><defs><style>.cls-1{fill:#231f20}</style></defs><path id="Path_78" d="M.5 91.18h17.27V39.36H.5zm95-47.5a8.65 8.65 0 0 0-8.64-8.63H59.62l4.1-19.74.13-1.38A6.55 6.55 0 0 0 62 9.35l-4.63-4.53L29 33.27a8.46 8.46 0 0 0-2.55 6.09v43.19a8.65 8.65 0 0 0 8.64 8.63h38.82a8.57 8.57 0 0 0 7.94-5.27L94.9 55.47a8.68 8.68 0 0 0 .6-3.15v-8.25z" class="cls-1"/></symbol><symbol id="thumbs" viewBox="0 0 96 96"><style>.st0{fill:#231f20}</style><path id="Path_72" d="M48 23.8c0-2.2-1.8-4-4-4H23.5l2.6-12.6.1-.9c0-1.2-.5-2.3-1.3-3.2L21.8 0 2.2 19.5C1.1 20.6.5 22.1.5 23.7v25.7c0 3.3 2.7 5.9 5.9 5.9h26.7c2.4 0 4.5-1.4 5.5-3.6l8.9-20.9c.3-.7.4-1.4.4-2.2v-4.8zm41.6 15.8H62.8c-2.4 0-4.5 1.4-5.5 3.6l-8.9 20.9c-.3.7-.4 1.4-.4 2.2v5c0 2.2 1.8 4 4 4h20.5l-2.7 12.5-.1 1c0 1.2.5 2.3 1.3 3.2l3.1 3 19.6-19.6c1.1-1.1 1.7-2.6 1.7-4.2V45.5c.1-3.3-2.6-5.9-5.8-5.9z" class="st0"/></symbol></svg>